<?xml version="1.0" encoding="utf-8"?>
<!-- Generator: Adobe Illustrator 22.1.0, SVG Export Plug-In . SVG Version: 6.00 Build 0)  -->
<svg version="1.1" id="Layer_1" xmlns="http://www.w3.org/2000/svg" xmlns:xlink="http://www.w3.org/1999/xlink" x="0px" y="0px"
	 viewBox="0 0 400 326" style="enable-background:new 0 0 400 326;" xml:space="preserve">
<style type="text/css">
	.st0{fill:url(#XMLID_393_);}
	.st1{fill:url(#XMLID_394_);}
	.st2{fill:url(#XMLID_395_);}
	.st3{fill:#FFFFFF;}
	.st4{opacity:0.3;fill:#231F20;}
	.st5{fill:url(#XMLID_396_);}
	.st6{fill:#4D2C89;}
	.st7{fill:url(#XMLID_397_);}
	.st8{fill:#BDC3C7;}
	.st9{opacity:0.3;fill:#212121;}
	.st10{fill:url(#XMLID_398_);}
	.st11{fill:url(#XMLID_399_);}
	.st12{fill:url(#XMLID_400_);}
	.st13{fill:url(#XMLID_401_);}
	.st14{fill:#FFF186;}
	.st15{fill:url(#XMLID_402_);}
	.st16{fill:url(#XMLID_403_);}
	.st17{fill:url(#XMLID_404_);}
	.st18{fill:#FFA000;}
	.st19{fill:url(#XMLID_405_);}
	.st20{fill:#212121;}
	.st21{fill:url(#XMLID_406_);}
	.st22{fill:url(#XMLID_407_);}
	.st23{fill:url(#XMLID_408_);}
	.st24{fill:url(#XMLID_409_);}
	.st25{fill:url(#XMLID_410_);}
	.st26{fill:url(#XMLID_411_);}
	.st27{fill:url(#XMLID_412_);}
	.st28{fill:url(#XMLID_413_);}
	.st29{fill:url(#XMLID_414_);}
	.st30{fill:#ECECEC;}
	.st31{fill:#D8D8D8;}
	.st32{fill:#FAFAFA;}
	.st33{fill:#C5C5C5;}
	.st34{fill:#373737;}
	.st35{fill:url(#XMLID_416_);}
	.st36{fill:#58595B;}
	.st37{fill:#414042;}
	.st38{fill:url(#XMLID_417_);}
	.st39{opacity:0.3;fill:#414042;}
	.st40{fill:#231F20;}
	.st41{fill:url(#XMLID_418_);}
	.st42{fill:url(#XMLID_419_);}
	.st43{fill:url(#XMLID_420_);}
	.st44{fill:#FFC107;}
	.st45{fill:url(#XMLID_421_);}
	.st46{fill:url(#XMLID_422_);}
	.st47{fill:url(#XMLID_423_);}
	.st48{fill:url(#XMLID_424_);}
	.st49{fill:url(#XMLID_425_);}
	.st50{fill:url(#XMLID_426_);}
	.st51{fill:url(#XMLID_427_);}
	.st52{fill:url(#XMLID_431_);}
	.st53{fill:url(#XMLID_432_);}
	.st54{fill:url(#XMLID_439_);}
	.st55{fill:url(#XMLID_448_);}
	.st56{fill:url(#XMLID_449_);}
	.st57{opacity:0.2;}
	.st58{opacity:0.35;}
	.st59{fill:#FF5722;}
	.st60{fill:#E6E7E8;}
	.st61{fill:url(#XMLID_450_);}
	.st62{fill:url(#XMLID_451_);}
	.st63{fill:url(#XMLID_452_);}
	.st64{fill:url(#XMLID_453_);}
	.st65{fill:url(#XMLID_454_);}
	.st66{fill:url(#XMLID_455_);}
	.st67{fill:#D1D3D4;}
	.st68{fill:url(#XMLID_456_);}
	.st69{fill:url(#XMLID_457_);}
	.st70{fill:#00ACBF;}
	.st71{fill:url(#XMLID_458_);}
	.st72{fill:url(#XMLID_459_);}
	.st73{fill:url(#XMLID_460_);}
	.st74{fill:url(#XMLID_469_);}
	.st75{fill:url(#XMLID_470_);}
	.st76{fill:url(#XMLID_471_);}
	.st77{fill:url(#XMLID_472_);}
	.st78{fill:url(#XMLID_473_);}
	.st79{fill:url(#XMLID_474_);}
	.st80{fill:url(#XMLID_475_);}
	.st81{fill:url(#XMLID_476_);}
	.st82{fill:url(#XMLID_477_);}
	.st83{fill:url(#XMLID_478_);}
	.st84{fill:url(#XMLID_479_);}
	.st85{fill:url(#XMLID_480_);}
	.st86{fill:url(#XMLID_481_);}
	.st87{fill:url(#XMLID_482_);}
	.st88{fill:url(#XMLID_483_);}
	.st89{fill:#00BEFF;}
	.st90{fill:url(#XMLID_484_);}
	.st91{opacity:0.1;}
	.st92{fill:url(#XMLID_485_);}
	.st93{fill:url(#XMLID_486_);}
	.st94{fill:url(#XMLID_491_);}
	.st95{fill:url(#XMLID_492_);}
	.st96{fill:url(#XMLID_493_);}
	.st97{fill:url(#XMLID_494_);}
	.st98{fill:url(#XMLID_496_);}
	.st99{fill:url(#XMLID_500_);}
	.st100{fill:url(#XMLID_501_);}
	.st101{fill:url(#XMLID_502_);}
	.st102{fill:url(#XMLID_503_);}
	.st103{opacity:0.25;fill:#212121;}
	.st104{fill:url(#XMLID_504_);}
	.st105{fill:url(#XMLID_505_);}
	.st106{fill:url(#XMLID_506_);}
	.st107{fill:url(#XMLID_507_);}
	.st108{fill:url(#XMLID_508_);}
	.st109{fill:url(#XMLID_509_);}
	.st110{fill:url(#XMLID_510_);}
	.st111{fill:url(#XMLID_511_);}
	.st112{fill:url(#XMLID_512_);}
	.st113{fill:url(#XMLID_513_);}
	.st114{fill:url(#XMLID_515_);}
	.st115{fill:url(#XMLID_517_);}
	.st116{fill:url(#XMLID_518_);}
	.st117{fill:url(#XMLID_519_);}
	.st118{fill:#E91E63;}
	.st119{fill:#ED4B82;}
	.st120{fill:#F278A1;}
	.st121{fill:#AF174A;}
	.st122{fill:url(#XMLID_520_);}
	.st123{fill:url(#XMLID_521_);}
	.st124{fill:url(#XMLID_522_);}
	.st125{fill:url(#XMLID_523_);}
	.st126{opacity:0.3;}
	.st127{fill:url(#XMLID_524_);}
	.st128{fill:url(#XMLID_525_);}
	.st129{fill:url(#XMLID_526_);}
	.st130{fill:url(#XMLID_527_);}
	.st131{fill:url(#XMLID_528_);}
	.st132{fill:url(#XMLID_529_);}
	.st133{fill:url(#XMLID_530_);}
	.st134{fill:url(#XMLID_531_);}
	.st135{fill:url(#XMLID_532_);}
	.st136{fill:url(#XMLID_533_);}
	.st137{fill:url(#XMLID_534_);}
	.st138{fill:url(#XMLID_535_);}
	.st139{fill:url(#XMLID_536_);}
	.st140{fill:url(#XMLID_537_);}
	.st141{fill:url(#XMLID_538_);}
	.st142{fill:url(#XMLID_539_);}
	.st143{fill:url(#XMLID_540_);}
	.st144{fill:url(#XMLID_541_);}
	.st145{fill:none;stroke:#FFFFFF;stroke-width:2;stroke-miterlimit:10;}
	.st146{opacity:0.31;fill:#231F20;}
	.st147{fill:url(#XMLID_553_);}
	.st148{fill:url(#XMLID_554_);}
</style>
<g id="XMLID_1220_">
	<linearGradient id="XMLID_393_" gradientUnits="userSpaceOnUse" x1="129.5188" y1="289.7699" x2="292.9643" y2="33.1199">
		<stop  offset="0" style="stop-color:#0AA4F5"/>
		<stop  offset="4.839605e-02" style="stop-color:#0BA9F6"/>
		<stop  offset="0.6936" style="stop-color:#14E7FC"/>
		<stop  offset="1" style="stop-color:#18FFFF"/>
	</linearGradient>
	<circle id="XMLID_1309_" class="st0" cx="210.6" cy="162.5" r="151.4"/>
	<g id="XMLID_1307_">
		<linearGradient id="XMLID_394_" gradientUnits="userSpaceOnUse" x1="280.7327" y1="149.2879" x2="383.3693" y2="149.2879">
			<stop  offset="0" style="stop-color:#E040FB"/>
			<stop  offset="5.434531e-02" style="stop-color:#D840F7"/>
			<stop  offset="0.5003" style="stop-color:#9B3DD4"/>
			<stop  offset="0.828" style="stop-color:#753BBF"/>
			<stop  offset="1" style="stop-color:#673AB7"/>
		</linearGradient>
		<path id="XMLID_1308_" class="st1" d="M291.6,156.7L281.3,146c-0.7-0.8-0.7-2,0-2.7c0.8-0.7,2-0.7,2.7,0l7.6,7.8l9-9.3l9,9.3
			l9-9.3l9,9.3l9-9.3l9,9.3l9-9.3l9,9.3l9-9.3l10.4,10.7c0.7,0.8,0.7,2,0,2.7c-0.8,0.7-2,0.7-2.7,0l-7.6-7.8l-9,9.3l-9-9.3l-9,9.3
			l-9-9.3l-9,9.3l-9-9.3l-9,9.3l-9-9.3L291.6,156.7z"/>
	</g>
	<g id="XMLID_1305_">
		<linearGradient id="XMLID_395_" gradientUnits="userSpaceOnUse" x1="16.6729" y1="75.922" x2="134.8385" y2="75.922">
			<stop  offset="0" style="stop-color:#FF9800"/>
			<stop  offset="0.296" style="stop-color:#FFBE00"/>
			<stop  offset="0.5766" style="stop-color:#FFDB00"/>
			<stop  offset="0.8204" style="stop-color:#FFEC00"/>
			<stop  offset="1" style="stop-color:#FFF200"/>
		</linearGradient>
		<path id="XMLID_1306_" class="st2" d="M29.2,84.4L17.3,72.1c-0.8-0.9-0.8-2.3,0-3.1c0.9-0.8,2.3-0.8,3.1,0l8.8,9l10.3-10.7
			l10.3,10.7l10.3-10.7l10.3,10.7l10.3-10.7l10.3,10.7l10.3-10.7l10.3,10.7l10.4-10.7l11.9,12.3c0.8,0.9,0.8,2.3,0,3.1
			c-0.9,0.8-2.3,0.8-3.1,0l-8.8-9l-10.4,10.7l-10.3-10.7L91.2,84.4L80.9,73.8L70.6,84.4L60.2,73.8L49.9,84.4L39.5,73.8L29.2,84.4z"
			/>
	</g>
	<g id="XMLID_1301_">
		<path id="XMLID_1302_" class="st3" d="M253.8,162.8l-7.6-13.2h15.2L253.8,162.8z M253.8,156.9l2.5-4.3h-4.9L253.8,156.9z"/>
	</g>
	<g id="XMLID_1297_">
		<path id="XMLID_1298_" class="st3" d="M146.1,51l-5.4-9.4h10.9L146.1,51z M146.1,46.7l1.8-3.1h-3.5L146.1,46.7z"/>
	</g>
	<g id="XMLID_1293_">
		<path id="XMLID_1294_" class="st3" d="M322.3,225.6h-10.1l5.1-8.8L322.3,225.6z M315.6,223.6h3.3l-1.6-2.8L315.6,223.6z"/>
	</g>
	<g id="XMLID_1289_">
		<path id="XMLID_1290_" class="st3" d="M86.1,138.1H76l5.1-8.8L86.1,138.1z M79.4,136.2h3.3l-1.6-2.8L79.4,136.2z"/>
	</g>
	<g id="XMLID_1287_">
		<path id="XMLID_1288_" class="st3" d="M101.2,198.7l-10-10.3c-0.6-0.6-0.6-1.6,0-2.2c0.6-0.6,1.6-0.6,2.2,0l7.8,8l8.9-9.2l8.9,9.2
			l8.9-9.2l8.9,9.2l7.8-8c0.6-0.6,1.6-0.6,2.2,0c0.6,0.6,0.6,1.6,0,2.2l-10,10.3l-8.9-9.2l-8.9,9.2l-8.9-9.2L101.2,198.7z"/>
	</g>
	<g id="XMLID_1285_">
		<path id="XMLID_1286_" class="st3" d="M237.7,41.4l-7.8-8c-0.5-0.5-0.4-1.2,0-1.7c0.5-0.5,1.2-0.4,1.7,0l6.1,6.2l6.9-7.1l6.9,7.1
			l6.9-7.1l6.9,7.1l6.1-6.2c0.5-0.5,1.2-0.5,1.7,0c0.5,0.5,0.5,1.2,0,1.7l-7.8,8l-6.9-7.1l-6.9,7.1l-6.9-7.1L237.7,41.4z"/>
	</g>
	<g id="XMLID_1281_">
		<path id="XMLID_1282_" class="st3" d="M312.1,94.4c-3,0-5.5-2.5-5.5-5.5c0-3,2.5-5.5,5.5-5.5c3,0,5.5,2.5,5.5,5.5
			C317.6,91.9,315.2,94.4,312.1,94.4z M312.1,86c-1.6,0-2.8,1.3-2.8,2.8c0,1.6,1.3,2.8,2.8,2.8c1.6,0,2.8-1.3,2.8-2.8
			C315,87.3,313.7,86,312.1,86z"/>
	</g>
	<g id="XMLID_1277_">
		<path id="XMLID_1278_" class="st3" d="M152.1,177.6c-2.5,0-4.5-2-4.5-4.5c0-2.5,2-4.5,4.5-4.5c2.5,0,4.5,2,4.5,4.5
			C156.6,175.6,154.6,177.6,152.1,177.6z M152.1,170.9c-1.3,0-2.3,1-2.3,2.3c0,1.3,1,2.3,2.3,2.3c1.3,0,2.3-1,2.3-2.3
			C154.4,171.9,153.4,170.9,152.1,170.9z"/>
	</g>
	<g id="XMLID_1241_">
		<g id="XMLID_1243_">
			<g id="XMLID_1275_">
				<linearGradient id="XMLID_396_" gradientUnits="userSpaceOnUse" x1="145.2662" y1="93.7732" x2="189.3552" y2="93.7732">
					<stop  offset="0" style="stop-color:#FF9800"/>
					<stop  offset="0.296" style="stop-color:#FFBE00"/>
					<stop  offset="0.5766" style="stop-color:#FFDB00"/>
					<stop  offset="0.8204" style="stop-color:#FFEC00"/>
					<stop  offset="1" style="stop-color:#FFF200"/>
				</linearGradient>
				<path id="XMLID_1276_" class="st5" d="M189.4,129.8c-12.2,0-23.1-6.8-27.8-17.4l-15.1-34c-2-4.4-1.6-9.4,1.1-13.5
					c2.9-4.4,7.9-7.1,13.4-7.1h25v4.9h-25c-3.8,0-7.3,1.8-9.3,4.8c-1.7,2.7-2,5.9-0.7,8.8l15.1,34c3.9,8.8,13,14.5,23.3,14.5V129.8z
					"/>
			</g>
			<linearGradient id="XMLID_397_" gradientUnits="userSpaceOnUse" x1="198.9786" y1="156.241" x2="221.5628" y2="156.241">
				<stop  offset="0" style="stop-color:#FF9800"/>
				<stop  offset="0.296" style="stop-color:#FFBE00"/>
				<stop  offset="0.5766" style="stop-color:#FFDB00"/>
				<stop  offset="0.8204" style="stop-color:#FFEC00"/>
				<stop  offset="1" style="stop-color:#FFF200"/>
			</linearGradient>
			<rect id="XMLID_1274_" x="199" y="133.4" class="st7" width="22.6" height="45.7"/>
			<polygon id="XMLID_1273_" class="st4" points="221.6,146.4 199,149.7 199,133.4 221.6,133.4 			"/>
			<g id="XMLID_1270_">
				<polygon id="XMLID_1272_" class="st4" points="186.1,57.8 166.4,57.8 166.9,62.7 186.1,62.7 				"/>
				<path id="XMLID_1271_" class="st4" d="M175.8,126.7c4.1,1.9,8.7,3,13.5,3v-4.9c-6.3,0-12.2-2.2-16.7-5.9
					C173.4,121.7,174.5,124.3,175.8,126.7z"/>
			</g>
			<g id="XMLID_1268_">
				<linearGradient id="XMLID_398_" gradientUnits="userSpaceOnUse" x1="231.7607" y1="93.7732" x2="275.8497" y2="93.7732">
					<stop  offset="0" style="stop-color:#FF9800"/>
					<stop  offset="0.296" style="stop-color:#FFBE00"/>
					<stop  offset="0.5766" style="stop-color:#FFDB00"/>
					<stop  offset="0.8204" style="stop-color:#FFEC00"/>
					<stop  offset="1" style="stop-color:#FFF200"/>
				</linearGradient>
				<path id="XMLID_1269_" class="st10" d="M231.8,129.8c12.2,0,23.1-6.8,27.8-17.4l15.1-34c2-4.4,1.6-9.4-1.1-13.5
					c-2.9-4.4-7.9-7.1-13.4-7.1h-25v4.9h25c3.8,0,7.3,1.8,9.3,4.8c1.7,2.7,2,5.9,0.7,8.8l-15.1,34c-3.9,8.8-13,14.5-23.3,14.5V129.8
					z"/>
			</g>
			<g id="XMLID_1265_">
				<polygon id="XMLID_1267_" class="st4" points="235.1,57.8 254.7,57.8 254.2,62.7 235.1,62.7 				"/>
				<path id="XMLID_1266_" class="st4" d="M245.3,126.7c-4.1,1.9-8.7,3-13.5,3v-4.9c6.3,0,12.2-2.2,16.7-5.9
					C247.7,121.7,246.6,124.3,245.3,126.7z"/>
			</g>
			<linearGradient id="XMLID_399_" gradientUnits="userSpaceOnUse" x1="168.3472" y1="98.8332" x2="252.1946" y2="98.8332">
				<stop  offset="0" style="stop-color:#FF9800"/>
				<stop  offset="0.296" style="stop-color:#FFBE00"/>
				<stop  offset="0.5766" style="stop-color:#FFDB00"/>
				<stop  offset="0.8204" style="stop-color:#FFEC00"/>
				<stop  offset="1" style="stop-color:#FFF200"/>
			</linearGradient>
			<path id="XMLID_1264_" class="st11" d="M210.5,145.9L210.5,145.9c-19.1,0-35.1-14.7-36.6-33.8l-5.4-58.6l-0.2-1.9h83.8l-5.1,60.2
				C245.7,131.1,229.8,145.9,210.5,145.9z"/>
			<path id="XMLID_1263_" class="st14" d="M216,145.5c5-0.8,9.7-2.5,13.8-5.1c0.2-1.4,0.3-2.9,0.4-4.4l4.3-82.9h-14.7
				C219.9,53.2,217.3,113.4,216,145.5z"/>
			<linearGradient id="XMLID_400_" gradientUnits="userSpaceOnUse" x1="195.5476" y1="156.2409" x2="224.9935" y2="156.2409">
				<stop  offset="0" style="stop-color:#FF9800"/>
				<stop  offset="0.296" style="stop-color:#FFBE00"/>
				<stop  offset="0.5766" style="stop-color:#FFDB00"/>
				<stop  offset="0.8204" style="stop-color:#FFEC00"/>
				<stop  offset="1" style="stop-color:#FFF200"/>
			</linearGradient>
			<path id="XMLID_1262_" class="st12" d="M223.5,160.9H197c-0.8,0-1.5-0.7-1.5-1.5v-6.3c0-0.8,0.7-1.5,1.5-1.5h26.5
				c0.8,0,1.5,0.7,1.5,1.5v6.3C225,160.2,224.3,160.9,223.5,160.9z"/>
			<linearGradient id="XMLID_401_" gradientUnits="userSpaceOnUse" x1="195.5476" y1="170.2492" x2="224.9935" y2="170.2492">
				<stop  offset="0" style="stop-color:#FF9800"/>
				<stop  offset="0.296" style="stop-color:#FFBE00"/>
				<stop  offset="0.5766" style="stop-color:#FFDB00"/>
				<stop  offset="0.8204" style="stop-color:#FFEC00"/>
				<stop  offset="1" style="stop-color:#FFF200"/>
			</linearGradient>
			<path id="XMLID_1261_" class="st13" d="M223.5,174.9H197c-0.8,0-1.5-0.7-1.5-1.5v-6.3c0-0.8,0.7-1.5,1.5-1.5h26.5
				c0.8,0,1.5,0.7,1.5,1.5v6.3C225,174.2,224.3,174.9,223.5,174.9z"/>
			<linearGradient id="XMLID_402_" gradientUnits="userSpaceOnUse" x1="184.5979" y1="178.6787" x2="235.9432" y2="178.6787">
				<stop  offset="0" style="stop-color:#FF9800"/>
				<stop  offset="0.296" style="stop-color:#FFBE00"/>
				<stop  offset="0.5766" style="stop-color:#FFDB00"/>
				<stop  offset="0.8204" style="stop-color:#FFEC00"/>
				<stop  offset="1" style="stop-color:#FFF200"/>
			</linearGradient>
			<path id="XMLID_1260_" class="st15" d="M235.9,182.5L235.9,182.5c0-4.2-3.4-7.6-7.6-7.6h-36.2c-4.2,0-7.6,3.4-7.6,7.6l0,0H235.9z
				"/>
			<path id="XMLID_1259_" class="st18" d="M184.6,182.5h51.3c0-0.9-0.2-1.8-0.5-2.6h-50.3C184.8,180.7,184.6,181.5,184.6,182.5z"/>
			<path id="XMLID_1258_" class="st18" d="M195.5,156.2v0.8c0,2.1,1.7,3.9,3.9,3.9h21.7c2.1,0,3.9-1.7,3.9-3.9v-0.8H195.5z"/>
			<path id="XMLID_1257_" class="st18" d="M195.5,170.2v0.8c0,2.1,1.7,3.9,3.9,3.9h21.7c2.1,0,3.9-1.7,3.9-3.9v-0.8H195.5z"/>
			<polygon id="XMLID_1256_" class="st4" points="168.5,53.6 169,59.3 251.8,56.4 252.2,51.7 168.3,51.7 			"/>
			<linearGradient id="XMLID_403_" gradientUnits="userSpaceOnUse" x1="165.2811" y1="52.0628" x2="255.2598" y2="52.0628">
				<stop  offset="0" style="stop-color:#FF9800"/>
				<stop  offset="0.296" style="stop-color:#FFBE00"/>
				<stop  offset="0.5766" style="stop-color:#FFDB00"/>
				<stop  offset="0.8204" style="stop-color:#FFEC00"/>
				<stop  offset="1" style="stop-color:#FFF200"/>
			</linearGradient>
			<rect id="XMLID_1255_" x="165.3" y="49.4" class="st16" width="90" height="5.4"/>
			<rect id="XMLID_1254_" x="218.4" y="49.4" class="st14" width="17.9" height="5.4"/>
			<g id="XMLID_1252_">
				<path id="XMLID_1253_" class="st20" d="M249.1,212.2h-76.8c-0.2,0-0.4-0.2-0.4-0.4v-28.9c0-0.2,0.2-0.4,0.4-0.4h76.8
					c0.2,0,0.4,0.2,0.4,0.4v28.9C249.5,212,249.3,212.2,249.1,212.2z"/>
			</g>
			<rect id="XMLID_1251_" x="191.4" y="186.5" class="st3" width="37.8" height="21.7"/>
			<g id="XMLID_1245_">
				<path id="XMLID_1247_" class="st20" d="M207.3,200.9h1.9v-8.4h-2v-2.2h4.3v10.6h1.7v2h-6V200.9z"/>
			</g>
		</g>
	</g>
	<rect id="XMLID_1239_" x="66.3" y="239.1" class="st36" width="96" height="75.6"/>
	<polygon id="XMLID_1236_" class="st37" points="162.4,255.3 66.3,268.5 66.3,239.1 162.4,239.1 	"/>
	<path id="XMLID_1235_" class="st36" d="M169.1,249.7H59.3c-0.5,0-1-0.4-1-1v-10.4c0-0.5,0.4-1,1-1h109.8c0.5,0,1,0.4,1,1v10.4
		C170,249.3,169.6,249.7,169.1,249.7z"/>
	<line id="XMLID_1234_" class="st145" x1="119" y1="273.4" x2="119" y2="295.6"/>
	<line id="XMLID_1233_" class="st145" x1="108.8" y1="273.4" x2="108.8" y2="295.6"/>
	<rect id="XMLID_1232_" x="257.4" y="257.2" class="st37" width="96" height="57.4"/>
	<polygon id="XMLID_1231_" class="st40" points="353.4,273.5 257.4,286.7 257.4,257.2 353.4,257.2 	"/>
	<path id="XMLID_1230_" class="st37" d="M360.2,267.9h-110c-0.5,0-0.9-0.4-0.9-0.9v-10.6c0-0.5,0.4-0.9,0.9-0.9h110
		c0.5,0,0.9,0.4,0.9,0.9v10.6C361.1,267.5,360.7,267.9,360.2,267.9z"/>
	<line id="XMLID_1229_" class="st145" x1="306.3" y1="285.5" x2="306.3" y2="305.2"/>
	<line id="XMLID_1228_" class="st145" x1="317.2" y1="285.5" x2="317.2" y2="305.2"/>
	<line id="XMLID_1227_" class="st145" x1="295.3" y1="285.5" x2="295.3" y2="305.2"/>
	<rect id="XMLID_1226_" x="253" y="255.6" class="st146" width="18" height="59.3"/>
	<rect id="XMLID_1225_" x="149.9" y="237.4" class="st146" width="18" height="77.5"/>
	<linearGradient id="XMLID_404_" gradientUnits="userSpaceOnUse" x1="161.8772" y1="263.9503" x2="257.9085" y2="263.9503">
		<stop  offset="0" style="stop-color:#BE1E2D"/>
		<stop  offset="0.5865" style="stop-color:#E74226"/>
		<stop  offset="1" style="stop-color:#FF5722"/>
	</linearGradient>
	<rect id="XMLID_1224_" x="161.9" y="213.3" class="st17" width="96" height="101.4"/>
	<polygon id="XMLID_1223_" class="st4" points="257.9,229.5 161.9,242.7 161.9,213.3 257.9,213.3 	"/>
	<linearGradient id="XMLID_405_" gradientUnits="userSpaceOnUse" x1="153.8262" y1="217.7927" x2="265.5411" y2="217.7927">
		<stop  offset="0" style="stop-color:#BE1E2D"/>
		<stop  offset="0.5865" style="stop-color:#E74226"/>
		<stop  offset="1" style="stop-color:#FF5722"/>
	</linearGradient>
	<path id="XMLID_1222_" class="st19" d="M264.6,224H154.7c-0.5,0-0.9-0.4-0.9-0.9v-10.5c0-0.5,0.4-0.9,0.9-0.9h109.9
		c0.5,0,0.9,0.4,0.9,0.9v10.5C265.5,223.6,265.1,224,264.6,224z"/>
	<line id="XMLID_1221_" class="st145" x1="210" y1="253.7" x2="210" y2="283.4"/>
</g>
</svg>
