<?xml version="1.0" encoding="utf-8"?>
<!-- Generator: Adobe Illustrator 22.1.0, SVG Export Plug-In . SVG Version: 6.00 Build 0)  -->
<svg version="1.1" id="Layer_1" xmlns="http://www.w3.org/2000/svg" xmlns:xlink="http://www.w3.org/1999/xlink" x="0px" y="0px"
	 viewBox="0 0 400 326" style="enable-background:new 0 0 400 326;" xml:space="preserve">
<style type="text/css">
	.st0{fill:url(#XMLID_393_);}
	.st1{fill:url(#XMLID_394_);}
	.st2{fill:url(#XMLID_395_);}
	.st3{fill:#FFFFFF;}
	.st4{opacity:0.3;fill:#231F20;}
	.st5{fill:url(#XMLID_396_);}
	.st6{fill:#4D2C89;}
	.st7{fill:url(#XMLID_397_);}
	.st8{fill:#BDC3C7;}
	.st9{opacity:0.3;fill:#212121;}
	.st10{fill:url(#XMLID_398_);}
	.st11{fill:url(#XMLID_399_);}
	.st12{fill:url(#XMLID_400_);}
	.st13{fill:url(#XMLID_401_);}
	.st14{fill:#FFF186;}
	.st15{fill:url(#XMLID_402_);}
	.st16{fill:url(#XMLID_403_);}
	.st17{fill:url(#XMLID_404_);}
	.st18{fill:#FFA000;}
	.st19{fill:url(#XMLID_405_);}
	.st20{fill:#212121;}
	.st21{fill:url(#XMLID_406_);}
	.st22{fill:url(#XMLID_407_);}
	.st23{fill:url(#XMLID_408_);}
	.st24{fill:url(#XMLID_409_);}
	.st25{fill:url(#XMLID_410_);}
	.st26{fill:url(#XMLID_411_);}
	.st27{fill:url(#XMLID_412_);}
	.st28{fill:url(#XMLID_413_);}
	.st29{fill:url(#XMLID_414_);}
	.st30{fill:#ECECEC;}
	.st31{fill:#D8D8D8;}
	.st32{fill:#FAFAFA;}
	.st33{fill:#C5C5C5;}
	.st34{fill:#373737;}
	.st35{fill:url(#XMLID_416_);}
	.st36{fill:#58595B;}
	.st37{fill:#414042;}
	.st38{fill:url(#XMLID_417_);}
	.st39{opacity:0.3;fill:#414042;}
	.st40{fill:#231F20;}
	.st41{fill:url(#XMLID_418_);}
	.st42{fill:url(#XMLID_419_);}
	.st43{fill:url(#XMLID_420_);}
	.st44{fill:#FFC107;}
	.st45{fill:url(#XMLID_421_);}
	.st46{fill:url(#XMLID_422_);}
	.st47{fill:url(#XMLID_423_);}
	.st48{fill:url(#XMLID_424_);}
	.st49{fill:url(#XMLID_425_);}
	.st50{fill:url(#XMLID_426_);}
	.st51{fill:url(#XMLID_427_);}
	.st52{fill:url(#XMLID_431_);}
	.st53{fill:url(#XMLID_432_);}
	.st54{fill:url(#XMLID_439_);}
	.st55{fill:url(#XMLID_448_);}
	.st56{fill:url(#XMLID_449_);}
	.st57{opacity:0.2;}
	.st58{opacity:0.35;}
	.st59{fill:#FF5722;}
	.st60{fill:#E6E7E8;}
	.st61{fill:url(#XMLID_450_);}
	.st62{fill:url(#XMLID_451_);}
	.st63{fill:url(#XMLID_452_);}
	.st64{fill:url(#XMLID_453_);}
	.st65{fill:url(#XMLID_454_);}
	.st66{fill:url(#XMLID_455_);}
	.st67{fill:#D1D3D4;}
	.st68{fill:url(#XMLID_456_);}
	.st69{fill:url(#XMLID_457_);}
	.st70{fill:#00ACBF;}
	.st71{fill:url(#XMLID_458_);}
	.st72{fill:url(#XMLID_459_);}
</style>
<g id="XMLID_76_">
	<linearGradient id="XMLID_393_" gradientUnits="userSpaceOnUse" x1="69.2773" y1="285.95" x2="395.3907" y2="19.6636">
		<stop  offset="0" style="stop-color:#E040FB"/>
		<stop  offset="0.4073" style="stop-color:#ED7792"/>
		<stop  offset="0.8161" style="stop-color:#FAAC2F"/>
		<stop  offset="1" style="stop-color:#FFC107"/>
	</linearGradient>
	<circle id="XMLID_239_" class="st0" cx="222.3" cy="161" r="151.4"/>
	<g id="XMLID_514_">
		<path id="XMLID_516_" class="st3" d="M181.7,37.6l-8.3-7.7l-7.5,7c-0.4,0.4-1.1,0.4-1.5-0.1c-0.4-0.4-0.4-1.1,0.1-1.5l9-8.4
			l8.3,7.7L190,27l8.3,7.7l8.3-7.7l9,8.4c0.4,0.4,0.5,1.1,0.1,1.5c-0.4,0.4-1.1,0.5-1.5,0.1l-7.5-7l-8.3,7.7l-8.3-7.7L181.7,37.6z"
			/>
	</g>
	<g id="XMLID_235_">
		<path id="XMLID_236_" class="st3" d="M97.7,107.8c-2.5,0-4.6-2.1-4.6-4.6c0-2.5,2.1-4.6,4.6-4.6c2.5,0,4.6,2.1,4.6,4.6
			C102.3,105.7,100.2,107.8,97.7,107.8z M97.7,100.8c-1.3,0-2.4,1.1-2.4,2.4c0,1.3,1.1,2.4,2.4,2.4s2.4-1.1,2.4-2.4
			C100.1,101.9,99,100.8,97.7,100.8z"/>
	</g>
	<g id="XMLID_218_">
		<path id="XMLID_219_" class="st3" d="M278.9,41.4c-2.1,0-3.8-1.7-3.8-3.8c0-2.1,1.7-3.8,3.8-3.8c2.1,0,3.8,1.7,3.8,3.8
			C282.6,39.7,281,41.4,278.9,41.4z M278.9,35.7c-1.1,0-1.9,0.9-1.9,1.9s0.9,1.9,1.9,1.9c1.1,0,1.9-0.9,1.9-1.9S280,35.7,278.9,35.7
			z"/>
	</g>
	<g id="XMLID_212_">
		<path id="XMLID_214_" class="st3" d="M118,175.3c-2.1,0-3.8-1.7-3.8-3.8c0-2.1,1.7-3.8,3.8-3.8c2.1,0,3.8,1.7,3.8,3.8
			C121.8,173.6,120.1,175.3,118,175.3z M118,169.6c-1.1,0-1.9,0.9-1.9,1.9c0,1.1,0.9,1.9,1.9,1.9c1.1,0,1.9-0.9,1.9-1.9
			C119.9,170.5,119.1,169.6,118,169.6z"/>
	</g>
	<g id="XMLID_184_">
		<path id="XMLID_194_" class="st3" d="M186.1,79.5c-3.1,0-5.6-2.5-5.6-5.6c0-3.1,2.5-5.6,5.6-5.6c3.1,0,5.6,2.5,5.6,5.6
			C191.7,77,189.2,79.5,186.1,79.5z M186.1,71.1c-1.6,0-2.9,1.3-2.9,2.9c0,1.6,1.3,2.9,2.9,2.9c1.6,0,2.9-1.3,2.9-2.9
			C189,72.4,187.7,71.1,186.1,71.1z"/>
	</g>
	<g id="XMLID_163_">
		<path id="XMLID_166_" class="st3" d="M342.2,114c-3.9,0-7.1-3.2-7.1-7.1c0-3.9,3.2-7.1,7.1-7.1c3.9,0,7.1,3.2,7.1,7.1
			C349.3,110.8,346.1,114,342.2,114z M342.2,103.2c-2,0-3.7,1.6-3.7,3.7c0,2,1.6,3.7,3.7,3.7c2,0,3.7-1.6,3.7-3.7
			C345.8,104.8,344.2,103.2,342.2,103.2z"/>
	</g>
	<g id="XMLID_487_">
		<path id="XMLID_488_" class="st3" d="M244.5,67.8L235.9,53H253L244.5,67.8z M241.7,56.4l2.8,4.8l2.8-4.8H241.7z"/>
	</g>
	<g id="XMLID_495_">
		<path id="XMLID_497_" class="st3" d="M343.8,174h-11.2l5.6-9.7L343.8,174z M340,171.8l-1.8-3.1l-1.8,3.1H340z"/>
	</g>
	<g id="XMLID_148_">
		<path id="XMLID_161_" class="st3" d="M149,57.9h-11.2l5.6-9.7L149,57.9z M145.2,55.7l-1.8-3.1l-1.8,3.1H145.2z"/>
	</g>
	<g id="XMLID_136_">
		<linearGradient id="XMLID_394_" gradientUnits="userSpaceOnUse" x1="24.8362" y1="139.9344" x2="118.0017" y2="139.9344">
			<stop  offset="0" style="stop-color:#E040FB"/>
			<stop  offset="5.434531e-02" style="stop-color:#D840F7"/>
			<stop  offset="0.5003" style="stop-color:#9B3DD4"/>
			<stop  offset="0.828" style="stop-color:#753BBF"/>
			<stop  offset="1" style="stop-color:#673AB7"/>
		</linearGradient>
		<path id="XMLID_137_" class="st1" d="M34.7,146.6l-9.4-9.7c-0.7-0.7-0.7-1.8,0-2.5c0.7-0.7,1.8-0.7,2.5,0l6.9,7.1l8.1-8.4l8.1,8.4
			l8.2-8.4l8.2,8.4l8.2-8.4l8.2,8.4l8.1-8.4l8.2,8.4l8.2-8.4l9.4,9.7c0.7,0.7,0.7,1.8,0,2.5c-0.7,0.7-1.8,0.7-2.5,0l-6.9-7.1
			l-8.2,8.4l-8.2-8.4l-8.2,8.4l-8.2-8.4l-8.2,8.4l-8.2-8.4l-8.2,8.4l-8.1-8.4L34.7,146.6z"/>
	</g>
	<g id="XMLID_133_">
		<linearGradient id="XMLID_395_" gradientUnits="userSpaceOnUse" x1="269.0622" y1="68.3914" x2="375.2059" y2="68.3914">
			<stop  offset="0" style="stop-color:#E040FB"/>
			<stop  offset="5.434531e-02" style="stop-color:#D840F7"/>
			<stop  offset="0.5003" style="stop-color:#9B3DD4"/>
			<stop  offset="0.828" style="stop-color:#753BBF"/>
			<stop  offset="1" style="stop-color:#673AB7"/>
		</linearGradient>
		<path id="XMLID_134_" class="st2" d="M280.3,76l-10.7-11c-0.8-0.8-0.7-2,0-2.8c0.8-0.8,2-0.7,2.8,0l7.9,8.1l9.3-9.6l9.3,9.6
			l9.3-9.6l9.3,9.6l9.3-9.6l9.3,9.6l9.3-9.6l9.3,9.6l9.3-9.6l10.7,11c0.8,0.8,0.7,2,0,2.8c-0.8,0.8-2,0.7-2.8,0l-7.9-8.1l-9.3,9.6
			l-9.3-9.6L336,76l-9.3-9.6l-9.3,9.6l-9.3-9.6l-9.3,9.6l-9.3-9.6L280.3,76z"/>
	</g>
	<g id="XMLID_991_">
		<g id="XMLID_992_">
			<path id="XMLID_1004_" class="st3" d="M315,313.8H132V96.3c0-1.6,1.3-3,3-3H312c1.6,0,3,1.3,3,3V313.8z"/>
			<path id="XMLID_1003_" class="st67" d="M315,120.9V99.7c0-3.5-2.8-6.3-6.3-6.3H138.3c-3.5,0-6.3,2.8-6.3,6.3v21.2H315z"/>
			<linearGradient id="XMLID_396_" gradientUnits="userSpaceOnUse" x1="135.0682" y1="215.5613" x2="308.5522" y2="131.0723">
				<stop  offset="0" style="stop-color:#673AB7"/>
				<stop  offset="0.172" style="stop-color:#753BBF"/>
				<stop  offset="0.4997" style="stop-color:#9B3DD4"/>
				<stop  offset="0.9457" style="stop-color:#D840F7"/>
				<stop  offset="1" style="stop-color:#E040FB"/>
			</linearGradient>
			<rect id="XMLID_1002_" x="152.3" y="139.9" class="st5" width="138.9" height="66.8"/>
			<path id="XMLID_1001_" class="st3" d="M153.5,107.1c0,2-1.6,3.7-3.7,3.7c-2,0-3.7-1.6-3.7-3.7c0-2,1.6-3.7,3.7-3.7
				C151.8,103.5,153.5,105.1,153.5,107.1z"/>
			<path id="XMLID_1000_" class="st3" d="M165.7,107.1c0,2-1.6,3.7-3.7,3.7c-2,0-3.7-1.6-3.7-3.7c0-2,1.6-3.7,3.7-3.7
				C164,103.5,165.7,105.1,165.7,107.1z"/>
			<path id="XMLID_999_" class="st3" d="M177.9,107.1c0,2-1.6,3.7-3.7,3.7c-2,0-3.7-1.6-3.7-3.7c0-2,1.6-3.7,3.7-3.7
				C176.3,103.5,177.9,105.1,177.9,107.1z"/>
			<path id="XMLID_936_" class="st31" d="M286.4,228.5H157.3c-2.7,0-4.9-2.2-4.9-4.9l0,0c0-2.7,2.2-4.9,4.9-4.9h129.1
				c2.7,0,4.9,2.2,4.9,4.9l0,0C291.3,226.3,289.1,228.5,286.4,228.5z"/>
			<path id="XMLID_973_" class="st31" d="M286.4,249.9H157.3c-2.7,0-4.9-2.2-4.9-4.9l0,0c0-2.7,2.2-4.9,4.9-4.9h129.1
				c2.7,0,4.9,2.2,4.9,4.9l0,0C291.3,247.7,289.1,249.9,286.4,249.9z"/>
			<path id="XMLID_974_" class="st31" d="M286.4,271.4H157.3c-2.7,0-4.9-2.2-4.9-4.9l0,0c0-2.7,2.2-4.9,4.9-4.9h129.1
				c2.7,0,4.9,2.2,4.9,4.9l0,0C291.3,269.2,289.1,271.4,286.4,271.4z"/>
			<path id="XMLID_975_" class="st31" d="M286.4,292.9H157.3c-2.7,0-4.9-2.2-4.9-4.9l0,0c0-2.7,2.2-4.9,4.9-4.9h129.1
				c2.7,0,4.9,2.2,4.9,4.9l0,0C291.3,290.7,289.1,292.9,286.4,292.9z"/>
		</g>
	</g>
	<path id="XMLID_132_" class="st9" d="M197.6,200.9c0-1.3,0.1-2.5,0.1-3.8l-61.2-16.2L132,182v130.7c0.5,0.4,1,0.7,1.5,1h5.9
		C151.2,305.4,196,269.4,197.6,200.9L197.6,200.9z"/>
	<g id="XMLID_937_">
		<linearGradient id="XMLID_397_" gradientUnits="userSpaceOnUse" x1="70.3357" y1="298.5602" x2="172.8485" y2="173.5172">
			<stop  offset="0" style="stop-color:#0AA4F5"/>
			<stop  offset="4.839605e-02" style="stop-color:#0BA9F6"/>
			<stop  offset="0.6936" style="stop-color:#14E7FC"/>
			<stop  offset="1" style="stop-color:#18FFFF"/>
		</linearGradient>
		<path id="XMLID_971_" class="st7" d="M132,315.7c0,0-61.3-35.1-61.2-118.6l61.2-16.2l61.2,16.2C193.2,278.7,132,315.7,132,315.7z"
			/>
		<path id="XMLID_969_" class="st70" d="M132,184.7l61.1,16.2c0-1.3,0.1-2.5,0.1-3.8L132,180.8l-61.2,16.2c0,1.3,0.1,2.6,0.1,3.8
			L132,184.7z"/>
		
			<ellipse id="XMLID_171_" transform="matrix(0.7071 -0.7071 0.7071 0.7071 -133.5168 164.6431)" class="st3" cx="132" cy="243.5" rx="31.1" ry="31.1"/>
		<g id="XMLID_938_">
			<polygon id="XMLID_131_" class="st20" points="126.9,260 113,246 121,238 126.9,243.9 142.1,228.7 150.1,236.7 			"/>
		</g>
	</g>
	<path id="XMLID_977_" class="st20" d="M252.6,160.5c0.3-0.9-0.2-1.9-1.1-2.1c-0.9-0.3-1.9,0.2-2.1,1.1l-0.7,2.3h-53.9l-2.2-7
		l-14.9-1.1c-0.9,0-1.8,0.6-1.8,1.6c-0.1,0.9,0.6,1.8,1.6,1.8l12.6,1l11.8,37h3.2c0.2,0,0.4,0,0.6-0.1c0.7,2.7,3.1,4.7,6,4.7
		c2.9,0,5.3-2,6-4.6c0.1,0,0.2,0.1,0.4,0.1h9.1c0.1,0,0.2,0,0.4-0.1c0.7,2.7,3.1,4.6,6,4.6c2.9,0,5.3-2,6-4.7
		c0.2,0.1,0.4,0.1,0.7,0.1h2.6c0.9,0,1.7-0.8,1.7-1.7c0-0.9-0.8-1.7-1.7-1.7h-2.6c-0.2,0-0.5,0-0.7,0.1c-0.7-2.7-3.1-4.7-6-4.7
		c-2.9,0-5.3,2-6,4.6c-0.1,0-0.2-0.1-0.4-0.1H218c-0.1,0-0.2,0-0.4,0.1c-0.7-2.7-3.1-4.6-6-4.6c-2.9,0-5.3,2-6,4.7
		c-0.2-0.1-0.4-0.1-0.6-0.1h-0.7l-2.2-6.8h42.7l2.5-7.8c0.1-0.2,0.2-0.4,0.2-0.6L252.6,160.5z M233.5,190.5c1.6,0,2.9,1.3,2.9,2.9
		c0,1.6-1.3,2.9-2.9,2.9c-1.6,0-2.9-1.3-2.9-2.9C230.6,191.7,231.9,190.5,233.5,190.5z M211.6,190.5c1.6,0,2.9,1.3,2.9,2.9
		c0,1.6-1.3,2.9-2.9,2.9c-1.6,0-2.9-1.3-2.9-2.9C208.8,191.7,210.1,190.5,211.6,190.5z M198.8,174.6l-1-3h47.6l-0.9,3H199
		C198.9,174.5,198.9,174.5,198.8,174.6z M247.5,165.2l-0.9,3h-49.8l-0.9-3H247.5z M201,181.4l-1.1-3.5h43.6l-1.1,3.5H201z"/>
	<path id="XMLID_114_" class="st9" d="M290.8,231v-5.3c0-13.5,10.8-24.5,24.2-25V189c-19.9,0.5-35.9,16.7-35.9,36.7v16.1
		c-6.1,7.8-9.7,17.6-9.7,28.3c0,20.2,12.9,37.3,30.9,43.7H315v-90.1C306.1,223.8,297.8,226.5,290.8,231z"/>
	<g id="XMLID_88_">
		<g id="XMLID_113_">
			<path id="XMLID_181_" class="st20" d="M351.2,264.2c-3.2,0-5.9-2.6-5.9-5.9v-32.7c0-13.8-11.2-25-25-25s-25,11.2-25,25v32.7
				c0,3.2-2.6,5.9-5.9,5.9c-3.2,0-5.9-2.6-5.9-5.9v-32.7c0-20.2,16.5-36.7,36.7-36.7c20.3,0,36.7,16.5,36.7,36.7v32.7
				C357.1,261.6,354.4,264.2,351.2,264.2z"/>
		</g>
		<linearGradient id="XMLID_398_" gradientUnits="userSpaceOnUse" x1="273.9245" y1="270.0594" x2="366.75" y2="270.0594">
			<stop  offset="0" style="stop-color:#FFC107"/>
			<stop  offset="0.7391" style="stop-color:#FFA402"/>
			<stop  offset="1" style="stop-color:#FF9800"/>
		</linearGradient>
		<circle id="XMLID_172_" class="st10" cx="320.3" cy="270.1" r="46.4"/>
		
			<ellipse id="XMLID_111_" transform="matrix(0.2286 -0.9735 0.9735 0.2286 -15.7988 520.1805)" class="st3" cx="320.3" cy="270.1" rx="26.7" ry="26.7"/>
		<g id="XMLID_89_">
			<path id="XMLID_91_" class="st20" d="M330.1,263.9c0,5.4-4.4,9.7-9.7,9.7c-5.4,0-9.7-4.4-9.7-9.7c0-5.4,4.4-9.7,9.7-9.7
				C325.7,254.1,330.1,258.5,330.1,263.9z"/>
			<polygon id="XMLID_90_" class="st20" points="328.6,286 312.1,286 314.5,263.9 326.2,263.9 			"/>
		</g>
	</g>
	<g id="XMLID_77_">
		<linearGradient id="XMLID_399_" gradientUnits="userSpaceOnUse" x1="128.8755" y1="296.1057" x2="322.4091" y2="296.1057">
			<stop  offset="0" style="stop-color:#673AB7"/>
			<stop  offset="0.172" style="stop-color:#753BBF"/>
			<stop  offset="0.4997" style="stop-color:#9B3DD4"/>
			<stop  offset="0.9457" style="stop-color:#D840F7"/>
			<stop  offset="1" style="stop-color:#E040FB"/>
		</linearGradient>
		<rect id="XMLID_87_" x="128.9" y="276.5" class="st11" width="193.5" height="39.2"/>
		<g id="XMLID_84_">
			<rect id="XMLID_185_" x="150.7" y="287.5" class="st3" width="4.5" height="19.1"/>
			
				<rect id="XMLID_207_" x="150.7" y="287.5" transform="matrix(6.123234e-17 -1 1 6.123234e-17 -144.1406 450.0002)" class="st3" width="4.5" height="19.1"/>
			
				<rect id="XMLID_86_" x="150.7" y="287.5" transform="matrix(0.7071 0.7071 -0.7071 0.7071 254.8526 -21.1278)" class="st3" width="4.5" height="19.1"/>
			
				<rect id="XMLID_85_" x="150.7" y="287.5" transform="matrix(-0.7071 0.7071 -0.7071 -0.7071 471.1283 398.9923)" class="st3" width="4.5" height="19.1"/>
		</g>
		<g id="XMLID_81_">
			<rect id="XMLID_217_" x="186.7" y="287.5" class="st3" width="4.5" height="19.1"/>
			
				<rect id="XMLID_83_" x="186.7" y="287.5" transform="matrix(6.123234e-17 -1 1 6.123234e-17 -108.1178 486.023)" class="st3" width="4.5" height="19.1"/>
			
				<rect id="XMLID_211_" x="186.7" y="287.5" transform="matrix(0.7071 0.7071 -0.7071 0.7071 265.4156 -46.5972)" class="st3" width="4.5" height="19.1"/>
			
				<rect id="XMLID_82_" x="186.7" y="287.5" transform="matrix(-0.7071 0.7071 -0.7071 -0.7071 532.6257 373.5091)" class="st3" width="4.5" height="19.1"/>
		</g>
		<g id="XMLID_223_">
			<rect id="XMLID_227_" x="222.7" y="287.5" class="st3" width="4.5" height="19.1"/>
			
				<rect id="XMLID_226_" x="222.7" y="287.5" transform="matrix(6.123234e-17 -1 1 6.123234e-17 -72.0947 522.0461)" class="st3" width="4.5" height="19.1"/>
			
				<rect id="XMLID_225_" x="222.7" y="287.5" transform="matrix(0.7071 0.7071 -0.7071 0.7071 275.9674 -72.0701)" class="st3" width="4.5" height="19.1"/>
			
				<rect id="XMLID_224_" x="222.7" y="287.5" transform="matrix(-0.7071 0.7071 -0.7071 -0.7071 594.118 348.0491)" class="st3" width="4.5" height="19.1"/>
		</g>
		<g id="XMLID_228_">
			<rect id="XMLID_232_" x="258.7" y="287.5" class="st3" width="4.5" height="19.1"/>
			
				<rect id="XMLID_231_" x="258.7" y="287.5" transform="matrix(6.123234e-17 -1 1 6.123234e-17 -36.0718 558.069)" class="st3" width="4.5" height="19.1"/>
			
				<rect id="XMLID_230_" x="258.7" y="287.5" transform="matrix(0.7071 0.7071 -0.7071 0.7071 286.5052 -97.544)" class="st3" width="4.5" height="19.1"/>
			
				<rect id="XMLID_229_" x="258.7" y="287.5" transform="matrix(-0.7071 0.7071 -0.7071 -0.7071 655.6129 322.5785)" class="st3" width="4.5" height="19.1"/>
		</g>
		<g id="XMLID_234_">
			<rect id="XMLID_80_" x="294.8" y="287.5" class="st3" width="4.5" height="19.1"/>
			
				<rect id="XMLID_79_" x="294.8" y="287.5" transform="matrix(6.123234e-17 -1 1 6.123234e-17 -4.880423e-02 594.092)" class="st3" width="4.5" height="19.1"/>
			
				<rect id="XMLID_78_" x="294.8" y="287.5" transform="matrix(0.7071 0.7071 -0.7071 0.7071 297.0709 -123.016)" class="st3" width="4.5" height="19.1"/>
			
				<rect id="XMLID_250_" x="294.8" y="287.5" transform="matrix(-0.7071 0.7071 -0.7071 -0.7071 717.108 297.0902)" class="st3" width="4.5" height="19.1"/>
		</g>
	</g>
</g>
</svg>
