<?xml version="1.0" encoding="utf-8"?>
<!-- Generator: Adobe Illustrator 22.1.0, SVG Export Plug-In . SVG Version: 6.00 Build 0)  -->
<svg version="1.1" id="Layer_1" xmlns="http://www.w3.org/2000/svg" xmlns:xlink="http://www.w3.org/1999/xlink" x="0px" y="0px"
	 viewBox="0 0 400 326" style="enable-background:new 0 0 400 326;" xml:space="preserve">
<style type="text/css">
	.st0{fill:url(#XMLID_393_);}
	.st1{fill:url(#XMLID_394_);}
	.st2{fill:url(#XMLID_395_);}
	.st3{fill:#FFFFFF;}
	.st4{opacity:0.3;fill:#231F20;}
	.st5{fill:url(#XMLID_396_);}
	.st6{fill:#4D2C89;}
	.st7{fill:url(#XMLID_397_);}
	.st8{fill:#BDC3C7;}
	.st9{opacity:0.3;fill:#212121;}
	.st10{fill:url(#XMLID_398_);}
	.st11{fill:url(#XMLID_399_);}
	.st12{fill:url(#XMLID_400_);}
	.st13{fill:url(#XMLID_401_);}
	.st14{fill:#FFF186;}
	.st15{fill:url(#XMLID_402_);}
	.st16{fill:url(#XMLID_403_);}
	.st17{fill:url(#XMLID_404_);}
	.st18{fill:#FFA000;}
	.st19{fill:url(#XMLID_405_);}
	.st20{fill:#212121;}
	.st21{fill:url(#XMLID_406_);}
	.st22{fill:url(#XMLID_407_);}
	.st23{fill:url(#XMLID_408_);}
	.st24{fill:url(#XMLID_409_);}
	.st25{fill:url(#XMLID_410_);}
	.st26{fill:url(#XMLID_411_);}
	.st27{fill:url(#XMLID_412_);}
	.st28{fill:url(#XMLID_413_);}
	.st29{fill:url(#XMLID_414_);}
	.st30{fill:#ECECEC;}
	.st31{fill:#D8D8D8;}
	.st32{fill:#FAFAFA;}
	.st33{fill:#C5C5C5;}
	.st34{fill:#373737;}
	.st35{fill:url(#XMLID_416_);}
	.st36{fill:#58595B;}
	.st37{fill:#414042;}
	.st38{fill:url(#XMLID_417_);}
	.st39{opacity:0.3;fill:#414042;}
	.st40{fill:#231F20;}
	.st41{fill:url(#XMLID_418_);}
	.st42{fill:url(#XMLID_419_);}
	.st43{fill:url(#XMLID_420_);}
	.st44{fill:#FFC107;}
	.st45{fill:url(#XMLID_421_);}
	.st46{fill:url(#XMLID_422_);}
	.st47{fill:url(#XMLID_423_);}
	.st48{fill:url(#XMLID_424_);}
	.st49{fill:url(#XMLID_425_);}
	.st50{fill:url(#XMLID_426_);}
	.st51{fill:url(#XMLID_427_);}
	.st52{fill:url(#XMLID_431_);}
	.st53{fill:url(#XMLID_432_);}
	.st54{fill:url(#XMLID_439_);}
	.st55{fill:url(#XMLID_448_);}
	.st56{fill:url(#XMLID_449_);}
	.st57{opacity:0.2;}
	.st58{opacity:0.35;}
	.st59{fill:#FF5722;}
	.st60{fill:#E6E7E8;}
	.st61{fill:url(#XMLID_450_);}
	.st62{fill:url(#XMLID_451_);}
	.st63{fill:url(#XMLID_452_);}
	.st64{fill:url(#XMLID_453_);}
	.st65{fill:url(#XMLID_454_);}
	.st66{fill:url(#XMLID_455_);}
	.st67{fill:#D1D3D4;}
	.st68{fill:url(#XMLID_456_);}
	.st69{fill:url(#XMLID_457_);}
	.st70{fill:#00ACBF;}
	.st71{fill:url(#XMLID_458_);}
	.st72{fill:url(#XMLID_459_);}
	.st73{fill:url(#XMLID_460_);}
	.st74{fill:url(#XMLID_469_);}
	.st75{fill:url(#XMLID_470_);}
	.st76{fill:url(#XMLID_471_);}
	.st77{fill:url(#XMLID_472_);}
	.st78{fill:url(#XMLID_473_);}
	.st79{fill:url(#XMLID_474_);}
	.st80{fill:url(#XMLID_475_);}
	.st81{fill:url(#XMLID_476_);}
	.st82{fill:url(#XMLID_477_);}
	.st83{fill:url(#XMLID_478_);}
	.st84{fill:url(#XMLID_479_);}
	.st85{fill:url(#XMLID_480_);}
	.st86{fill:url(#XMLID_481_);}
	.st87{fill:url(#XMLID_482_);}
	.st88{fill:url(#XMLID_483_);}
	.st89{fill:#00BEFF;}
	.st90{fill:url(#XMLID_484_);}
	.st91{opacity:0.1;}
	.st92{fill:url(#XMLID_485_);}
	.st93{fill:url(#XMLID_486_);}
	.st94{fill:url(#XMLID_491_);}
	.st95{fill:url(#XMLID_492_);}
	.st96{fill:url(#XMLID_493_);}
	.st97{fill:url(#XMLID_494_);}
	.st98{fill:url(#XMLID_496_);}
	.st99{fill:url(#XMLID_500_);}
	.st100{fill:url(#XMLID_501_);}
	.st101{fill:url(#XMLID_502_);}
	.st102{fill:url(#XMLID_503_);}
	.st103{opacity:0.25;fill:#212121;}
	.st104{fill:url(#XMLID_504_);}
	.st105{fill:url(#XMLID_505_);}
	.st106{fill:url(#XMLID_506_);}
	.st107{fill:url(#XMLID_507_);}
	.st108{fill:url(#XMLID_508_);}
	.st109{fill:url(#XMLID_509_);}
	.st110{fill:url(#XMLID_510_);}
	.st111{fill:url(#XMLID_511_);}
	.st112{fill:url(#XMLID_512_);}
	.st113{fill:url(#XMLID_513_);}
	.st114{fill:url(#XMLID_515_);}
	.st115{fill:url(#XMLID_517_);}
	.st116{fill:url(#XMLID_518_);}
	.st117{fill:url(#XMLID_519_);}
	.st118{fill:#E91E63;}
	.st119{fill:#ED4B82;}
	.st120{fill:#F278A1;}
	.st121{fill:#AF174A;}
	.st122{fill:url(#XMLID_520_);}
	.st123{fill:url(#XMLID_521_);}
	.st124{fill:url(#XMLID_522_);}
	.st125{fill:url(#XMLID_523_);}
	.st126{opacity:0.3;}
	.st127{fill:url(#XMLID_524_);}
	.st128{fill:url(#XMLID_525_);}
	.st129{fill:url(#XMLID_526_);}
	.st130{fill:url(#XMLID_527_);}
	.st131{fill:url(#XMLID_528_);}
	.st132{fill:url(#XMLID_529_);}
	.st133{fill:url(#XMLID_530_);}
	.st134{fill:url(#XMLID_531_);}
	.st135{fill:url(#XMLID_532_);}
	.st136{fill:url(#XMLID_533_);}
	.st137{fill:url(#XMLID_534_);}
	.st138{fill:url(#XMLID_535_);}
	.st139{fill:url(#XMLID_536_);}
	.st140{fill:url(#XMLID_537_);}
	.st141{fill:url(#XMLID_538_);}
	.st142{fill:url(#XMLID_539_);}
	.st143{fill:url(#XMLID_540_);}
	.st144{fill:url(#XMLID_541_);}
	.st145{fill:none;stroke:#FFFFFF;stroke-width:2;stroke-miterlimit:10;}
	.st146{opacity:0.31;fill:#231F20;}
	.st147{fill:url(#XMLID_553_);}
	.st148{fill:url(#XMLID_554_);}
	.st149{fill:url(#XMLID_556_);}
	.st150{fill:#F1F2F2;}
	.st151{fill:#40C4FF;}
	.st152{opacity:0.2;fill:#231F20;}
	.st153{fill:url(#XMLID_561_);}
	.st154{opacity:0.1;fill:#231F20;}
	.st155{fill:url(#XMLID_562_);}
	.st156{fill:url(#XMLID_575_);}
	.st157{fill:url(#XMLID_576_);}
	.st158{fill:url(#XMLID_590_);}
	.st159{fill:url(#XMLID_591_);}
	.st160{fill:url(#XMLID_592_);}
	.st161{fill:#FFCD39;}
	.st162{fill:url(#XMLID_593_);}
	.st163{fill:url(#XMLID_594_);}
	.st164{fill:url(#XMLID_595_);}
	.st165{fill:url(#XMLID_596_);}
	.st166{fill:url(#XMLID_597_);}
	.st167{fill:url(#XMLID_598_);}
	.st168{fill:url(#XMLID_599_);}
	.st169{fill:url(#XMLID_600_);}
	.st170{fill:url(#XMLID_601_);}
	.st171{fill:#FFE836;}
	.st172{fill:url(#XMLID_602_);}
	.st173{opacity:0.2;fill:#FFFFFF;}
	.st174{fill:url(#XMLID_603_);}
	.st175{fill:url(#XMLID_604_);}
	.st176{fill:url(#XMLID_605_);}
	.st177{fill:url(#XMLID_606_);}
	.st178{fill:url(#XMLID_607_);}
	.st179{fill:url(#XMLID_608_);}
</style>
<g id="XMLID_1355_">
	<linearGradient id="XMLID_393_" gradientUnits="userSpaceOnUse" x1="55.2006" y1="286.4129" x2="381.3139" y2="20.1266">
		<stop  offset="0" style="stop-color:#E040FB"/>
		<stop  offset="6.807190e-02" style="stop-color:#E24AE9"/>
		<stop  offset="0.5339" style="stop-color:#F28971"/>
		<stop  offset="0.8535" style="stop-color:#FBB125"/>
		<stop  offset="1" style="stop-color:#FFC107"/>
	</linearGradient>
	<circle id="XMLID_1545_" class="st0" cx="208.2" cy="161.4" r="151.4"/>
	<linearGradient id="XMLID_394_" gradientUnits="userSpaceOnUse" x1="55.2006" y1="286.4129" x2="381.3139" y2="20.1266">
		<stop  offset="0" style="stop-color:#E040FB"/>
		<stop  offset="6.807190e-02" style="stop-color:#E24AE9"/>
		<stop  offset="0.5339" style="stop-color:#F28971"/>
		<stop  offset="0.8535" style="stop-color:#FBB125"/>
		<stop  offset="1" style="stop-color:#FFC107"/>
	</linearGradient>
	<circle id="XMLID_1544_" class="st1" cx="208.2" cy="161.4" r="151.4"/>
	<g id="XMLID_1537_">
		<polygon id="XMLID_1543_" class="st32" points="306.7,305.1 214.9,305.1 221.4,265.5 300.8,265.5 		"/>
		<polygon id="XMLID_1542_" class="st33" points="221.4,265.5 216.5,295.2 304.3,288.8 300.8,265.5 		"/>
		<path id="XMLID_1541_" class="st34" d="M367.3,140.7c0-2.2-1.7-3.9-3.9-3.9H158.2c-2.2,0-3.9,1.7-3.9,3.9v119.5
			c0,2.2,1.7,3.9,3.9,3.9h205.2c2.2,0,3.9-1.7,3.9-3.9V140.7z"/>
		<path id="XMLID_1540_" class="st3" d="M367.3,257.1v16.2c0,5.8-4.7,10.4-10.4,10.4H164.7c-5.7,0-10.4-4.7-10.4-10.4v-16.2H367.3z"
			/>
		<linearGradient id="XMLID_395_" gradientUnits="userSpaceOnUse" x1="163.4437" y1="197.0149" x2="358.2003" y2="197.0149">
			<stop  offset="0" style="stop-color:#7C4DFF"/>
			<stop  offset="4.569471e-03" style="stop-color:#7D4DFF"/>
			<stop  offset="0.3159" style="stop-color:#A747FD"/>
			<stop  offset="0.5965" style="stop-color:#C643FC"/>
			<stop  offset="0.8341" style="stop-color:#D941FB"/>
			<stop  offset="1" style="stop-color:#E040FB"/>
		</linearGradient>
		<rect id="XMLID_1539_" x="163.4" y="145.8" class="st2" width="194.8" height="102.5"/>
		<path id="XMLID_1538_" class="st30" d="M313.6,314H207.4c-2.5,0-4.4-2-4.4-4.4l0,0c0-2.5,2-4.4,4.4-4.4h106.2c2.5,0,4.4,2,4.4,4.4
			l0,0C318,312,316.1,314,313.6,314z"/>
	</g>
	<polygon id="XMLID_1536_" class="st4" points="334.7,248.3 187,248.3 181.3,136.8 340.3,136.8 	"/>
	<g id="XMLID_1526_">
		<path id="XMLID_1535_" class="st3" d="M334.8,248.3h-148V84.8c0-1.7,1.4-3,3-3h141.9c1.7,0,3,1.4,3,3V248.3z"/>
		<path id="XMLID_1534_" class="st67" d="M334.8,101.9V87.6c0-3.2-2.6-5.9-5.9-5.9H192.7c-3.2,0-5.9,2.6-5.9,5.9v14.3H334.8z"/>
		<linearGradient id="XMLID_396_" gradientUnits="userSpaceOnUse" x1="198.1283" y1="147.9656" x2="324.2759" y2="147.9656">
			<stop  offset="0" style="stop-color:#0AA4F5"/>
			<stop  offset="4.839605e-02" style="stop-color:#0BA9F6"/>
			<stop  offset="0.6936" style="stop-color:#14E7FC"/>
			<stop  offset="1" style="stop-color:#18FFFF"/>
		</linearGradient>
		<rect id="XMLID_1533_" x="198.1" y="116.4" class="st5" width="126.1" height="63.2"/>
		<rect id="XMLID_1532_" x="198.3" y="188.5" class="st67" width="39.4" height="55.2"/>
		<rect id="XMLID_1531_" x="284.9" y="188.5" class="st67" width="39.4" height="55.2"/>
		<rect id="XMLID_1530_" x="242.2" y="188.5" class="st60" width="39.4" height="55.2"/>
		<path id="XMLID_1529_" class="st3" d="M206.4,92.4c0,1.4-1.1,2.5-2.5,2.5c-1.4,0-2.5-1.1-2.5-2.5c0-1.4,1.1-2.5,2.5-2.5
			C205.3,89.8,206.4,91,206.4,92.4z"/>
		<path id="XMLID_1528_" class="st3" d="M214.9,92.4c0,1.4-1.1,2.5-2.5,2.5c-1.4,0-2.5-1.1-2.5-2.5c0-1.4,1.1-2.5,2.5-2.5
			C213.8,89.8,214.9,91,214.9,92.4z"/>
		<path id="XMLID_1527_" class="st3" d="M223.4,92.4c0,1.4-1.1,2.5-2.5,2.5c-1.4,0-2.5-1.1-2.5-2.5c0-1.4,1.1-2.5,2.5-2.5
			C222.3,89.8,223.4,91,223.4,92.4z"/>
	</g>
	<path id="XMLID_1525_" class="st4" d="M251.7,300.7h-9.6V200.7c0-1.6-1.3-2.8-2.8-2.8h-85v59.3v3.1v13.1c0,5.8,4.7,10.4,10.4,10.4
		h53.7l-1.9,11.5h0l-1.6,9.9h-7.5c-2.5,0-4.4,2-4.4,4.4c0,2.5,2,4.4,4.4,4.4H232c7.4,0,14.5-2.9,19.7-8.1V300.7z"/>
	<g id="XMLID_1518_">
		<g id="XMLID_1519_">
			<path id="XMLID_1524_" class="st34" d="M237.6,301.3H73.1V199.1c0-0.7,0.6-1.2,1.2-1.2h162c0.7,0,1.3,0.6,1.3,1.3V301.3z"/>
			<linearGradient id="XMLID_397_" gradientUnits="userSpaceOnUse" x1="79.2998" y1="289.8819" x2="235.1853" y2="208.1765">
				<stop  offset="0" style="stop-color:#673AB7"/>
				<stop  offset="0.172" style="stop-color:#753BBF"/>
				<stop  offset="0.4997" style="stop-color:#9B3DD4"/>
				<stop  offset="0.9457" style="stop-color:#D840F7"/>
				<stop  offset="1" style="stop-color:#E040FB"/>
			</linearGradient>
			<rect id="XMLID_1523_" x="81.5" y="207.1" class="st7" width="147.7" height="85.7"/>
			<path id="XMLID_1522_" class="st31" d="M247.2,305.9H63.5l0,0c5.2,5.2,12.3,8.1,19.7,8.1h144.3C234.9,314,242,311.1,247.2,305.9
				L247.2,305.9z"/>
			<rect id="XMLID_1521_" x="63.5" y="300.7" class="st30" width="183.7" height="5.2"/>
			<path id="XMLID_1520_" class="st31" d="M166.7,304.7H144c-0.8,0-1.4-0.6-1.4-1.4l0,0c0-0.8,0.6-1.4,1.4-1.4h22.7
				c0.8,0,1.4,0.6,1.4,1.4l0,0C168.1,304.1,167.5,304.7,166.7,304.7z"/>
		</g>
	</g>
	<g id="XMLID_1471_">
		<rect id="XMLID_1517_" x="85.5" y="210.8" class="st3" width="3.1" height="3.1"/>
		<rect id="XMLID_1515_" x="85.5" y="218.1" class="st3" width="3.1" height="3.1"/>
		<rect id="XMLID_1514_" x="85.5" y="225.5" class="st3" width="3.1" height="3.1"/>
		<rect id="XMLID_1513_" x="85.5" y="232.8" class="st3" width="3.1" height="3.1"/>
		<rect id="XMLID_1512_" x="85.5" y="240.2" class="st3" width="3.1" height="3.1"/>
		<rect id="XMLID_1511_" x="85.5" y="247.6" class="st3" width="3.1" height="3.1"/>
		<rect id="XMLID_1510_" x="85.5" y="254.9" class="st3" width="3.1" height="3.1"/>
		<rect id="XMLID_1509_" x="85.5" y="262.3" class="st3" width="3.1" height="3.1"/>
		<rect id="XMLID_1508_" x="85.5" y="269.7" class="st3" width="3.1" height="3.1"/>
		<rect id="XMLID_1507_" x="85.5" y="277" class="st3" width="3.1" height="3.1"/>
		<rect id="XMLID_1506_" x="85.5" y="284.4" class="st3" width="3.1" height="3.1"/>
		<rect id="XMLID_1505_" x="95.2" y="211.5" class="st3" width="25.6" height="1.5"/>
		<rect id="XMLID_1504_" x="95.2" y="242.5" class="st3" width="25.6" height="1.5"/>
		
			<rect id="XMLID_1503_" x="123.2" y="242.5" transform="matrix(-1 -1.224647e-16 1.224647e-16 -1 251.737 486.6068)" class="st171" width="5.3" height="1.5"/>
		<rect id="XMLID_1502_" x="100.4" y="215.8" class="st171" width="14.1" height="1.5"/>
		
			<rect id="XMLID_1501_" x="117.4" y="215.8" transform="matrix(-1 -1.224647e-16 1.224647e-16 -1 252.1015 433.1378)" class="st3" width="17.2" height="1.5"/>
		
			<rect id="XMLID_1500_" x="100.4" y="246.8" transform="matrix(-1 -1.224647e-16 1.224647e-16 -1 218.0054 495.131)" class="st3" width="17.2" height="1.5"/>
		<rect id="XMLID_1498_" x="95.2" y="275.7" class="st3" width="25.6" height="1.6"/>
		
			<rect id="XMLID_1497_" x="125.9" y="275.7" transform="matrix(-1 -1.224647e-16 1.224647e-16 -1 263.8671 552.8621)" class="st3" width="12.1" height="1.6"/>
		
			<rect id="XMLID_1496_" x="100.4" y="279.9" transform="matrix(-1 -1.224647e-16 1.224647e-16 -1 210.3829 561.3862)" class="st171" width="9.6" height="1.5"/>
		<rect id="XMLID_1495_" x="114.5" y="279.9" class="st3" width="31.2" height="1.5"/>
		<rect id="XMLID_1494_" x="104.9" y="287.5" class="st3" width="73.4" height="1.5"/>
		
			<rect id="XMLID_1493_" x="180" y="287.5" transform="matrix(-1 -1.224647e-16 1.224647e-16 -1 367.2928 576.4966)" class="st171" width="7.3" height="1.5"/>
		
			<rect id="XMLID_1492_" x="189.1" y="287.5" transform="matrix(-1 -1.224647e-16 1.224647e-16 -1 407.3982 576.4966)" class="st3" width="29.3" height="1.5"/>
		
			<rect id="XMLID_1491_" x="104.6" y="222.9" transform="matrix(-1 -1.224647e-16 1.224647e-16 -1 234.72 447.2957)" class="st3" width="25.4" height="1.5"/>
		
			<rect id="XMLID_1490_" x="104.6" y="255.7" transform="matrix(-1 -1.224647e-16 1.224647e-16 -1 234.72 512.954)" class="st3" width="25.4" height="1.5"/>
		
			<rect id="XMLID_1489_" x="104.9" y="260.7" transform="matrix(-1 -1.224647e-16 1.224647e-16 -1 258.1768 522.9237)" class="st3" width="48.4" height="1.5"/>
		<rect id="XMLID_1488_" x="155" y="260.7" class="st3" width="12.5" height="1.5"/>
		
			<rect id="XMLID_1487_" x="170" y="260.7" transform="matrix(-1 -1.224647e-16 1.224647e-16 -1 375.7192 522.9237)" class="st3" width="35.7" height="1.5"/>
		
			<rect id="XMLID_1486_" x="104.9" y="265.7" transform="matrix(-1 -1.224647e-16 1.224647e-16 -1 222.5306 532.8929)" class="st171" width="12.7" height="1.5"/>
		
			<rect id="XMLID_1485_" x="120.7" y="265.7" transform="matrix(-1 -1.224647e-16 1.224647e-16 -1 257.8436 532.8929)" class="st3" width="16.4" height="1.5"/>
		<rect id="XMLID_1484_" x="132.6" y="255.7" class="st3" width="15.1" height="1.5"/>
		
			<rect id="XMLID_1483_" x="150.1" y="255.7" transform="matrix(-1 -1.224647e-16 1.224647e-16 -1 307.3961 512.954)" class="st171" width="7.2" height="1.5"/>
		<rect id="XMLID_1482_" x="160.6" y="255.7" class="st3" width="13.8" height="1.5"/>
		
			<rect id="XMLID_1481_" x="180" y="255.7" transform="matrix(-1 -1.224647e-16 1.224647e-16 -1 403.395 512.954)" class="st3" width="43.4" height="1.5"/>
		
			<rect id="XMLID_1480_" x="104.6" y="227.8" transform="matrix(-1 -1.224647e-16 1.224647e-16 -1 254.4262 457.1601)" class="st3" width="45.1" height="1.5"/>
		<rect id="XMLID_1479_" x="153.3" y="227.8" class="st3" width="25" height="1.5"/>
		<rect id="XMLID_1478_" x="133.4" y="222.9" class="st171" width="4.6" height="1.5"/>
		
			<rect id="XMLID_1477_" x="141.3" y="222.9" transform="matrix(-1 -1.224647e-16 1.224647e-16 -1 311.576 447.2957)" class="st3" width="29.1" height="1.5"/>
		
			<rect id="XMLID_1476_" x="104.6" y="232.1" transform="matrix(-1 -1.224647e-16 1.224647e-16 -1 225.367 465.6842)" class="st3" width="16.1" height="1.5"/>
		<rect id="XMLID_1475_" x="124.4" y="232.1" class="st3" width="19.4" height="1.5"/>
		
			<rect id="XMLID_1474_" x="146.5" y="232.1" transform="matrix(-1 -1.224647e-16 1.224647e-16 -1 340.2472 465.6842)" class="st3" width="47.3" height="1.5"/>
		<rect id="XMLID_1473_" x="173.7" y="222.9" class="st3" width="26" height="1.5"/>
		
			<rect id="XMLID_1472_" x="202.2" y="222.9" transform="matrix(-1 -1.224647e-16 1.224647e-16 -1 424.9365 447.2957)" class="st3" width="20.6" height="1.5"/>
	</g>
	<g id="XMLID_1447_">
		<linearGradient id="XMLID_398_" gradientUnits="userSpaceOnUse" x1="349.7155" y1="242.3912" x2="374.1542" y2="242.3912">
			<stop  offset="0" style="stop-color:#FFC107"/>
			<stop  offset="0.7391" style="stop-color:#FFA402"/>
			<stop  offset="1" style="stop-color:#FF9800"/>
		</linearGradient>
		<path id="XMLID_1470_" class="st10" d="M350.1,170.8h23.6c0.2,0,0.4,0.2,0.4,0.4v142.4c0,0.2-0.2,0.4-0.4,0.4h-23.6
			c-0.2,0-0.4-0.2-0.4-0.4V171.2C349.7,171,349.9,170.8,350.1,170.8z"/>
		<path id="XMLID_1469_" class="st173" d="M352.3,170.8h7.8V314h-7.8c-1.4,0-2.6-1.5-2.6-3.3V174
			C349.7,172.2,350.9,170.8,352.3,170.8z"/>
		
			<rect id="XMLID_1468_" x="349.7" y="304.4" transform="matrix(-1 -1.224647e-16 1.224647e-16 -1 702.4914 610.345)" class="st37" width="3.1" height="1.6"/>
		
			<rect id="XMLID_1467_" x="349.7" y="298" transform="matrix(-1 -1.224647e-16 1.224647e-16 -1 702.4914 597.6194)" class="st37" width="3.1" height="1.6"/>
		
			<rect id="XMLID_1466_" x="349.7" y="291.7" transform="matrix(-1 -1.224647e-16 1.224647e-16 -1 702.4914 584.8945)" class="st37" width="3.1" height="1.6"/>
		
			<rect id="XMLID_1465_" x="349.7" y="285.3" transform="matrix(-1 -1.224647e-16 1.224647e-16 -1 702.4914 572.1696)" class="st37" width="3.1" height="1.6"/>
		
			<rect id="XMLID_1464_" x="349.7" y="278.9" transform="matrix(-1 -1.224647e-16 1.224647e-16 -1 705.5517 559.444)" class="st37" width="6.1" height="1.6"/>
		
			<rect id="XMLID_1463_" x="349.7" y="272.6" transform="matrix(-1 -1.224647e-16 1.224647e-16 -1 702.4914 546.7184)" class="st37" width="3.1" height="1.6"/>
		
			<rect id="XMLID_1462_" x="349.7" y="266.2" transform="matrix(-1 -1.224647e-16 1.224647e-16 -1 702.4914 533.9933)" class="st37" width="3.1" height="1.6"/>
		
			<rect id="XMLID_1461_" x="349.7" y="259.8" transform="matrix(-1 -1.224647e-16 1.224647e-16 -1 702.4914 521.2689)" class="st37" width="3.1" height="1.6"/>
		
			<rect id="XMLID_1460_" x="349.7" y="253.5" transform="matrix(-1 -1.224647e-16 1.224647e-16 -1 702.4914 508.5435)" class="st37" width="3.1" height="1.6"/>
		
			<rect id="XMLID_1459_" x="349.7" y="247.1" transform="matrix(-1 -1.224647e-16 1.224647e-16 -1 705.5517 495.8179)" class="st37" width="6.1" height="1.6"/>
		
			<rect id="XMLID_1458_" x="349.7" y="240.8" transform="matrix(-1 -1.224647e-16 1.224647e-16 -1 702.4914 483.093)" class="st37" width="3.1" height="1.6"/>
		
			<rect id="XMLID_1457_" x="349.7" y="234.4" transform="matrix(-1 -1.224647e-16 1.224647e-16 -1 702.4914 470.3667)" class="st37" width="3.1" height="1.6"/>
		
			<rect id="XMLID_1456_" x="349.7" y="228" transform="matrix(-1 -1.224647e-16 1.224647e-16 -1 702.4914 457.6425)" class="st37" width="3.1" height="1.6"/>
		
			<rect id="XMLID_1455_" x="349.7" y="221.7" transform="matrix(-1 -1.224647e-16 1.224647e-16 -1 702.4914 444.9169)" class="st37" width="3.1" height="1.6"/>
		
			<rect id="XMLID_1454_" x="349.7" y="215.3" transform="matrix(-1 -1.224647e-16 1.224647e-16 -1 705.5517 432.1913)" class="st37" width="6.1" height="1.6"/>
		
			<rect id="XMLID_1453_" x="349.7" y="208.9" transform="matrix(-1 -1.224647e-16 1.224647e-16 -1 702.4914 419.4675)" class="st37" width="3.1" height="1.6"/>
		
			<rect id="XMLID_1452_" x="349.7" y="202.6" transform="matrix(-1 -1.224647e-16 1.224647e-16 -1 702.4914 406.7413)" class="st37" width="3.1" height="1.6"/>
		
			<rect id="XMLID_1451_" x="349.7" y="196.2" transform="matrix(-1 -1.224647e-16 1.224647e-16 -1 702.4914 394.0164)" class="st37" width="3.1" height="1.6"/>
		
			<rect id="XMLID_1450_" x="349.7" y="189.9" transform="matrix(-1 -1.224647e-16 1.224647e-16 -1 702.4914 381.2907)" class="st37" width="3.1" height="1.6"/>
		
			<rect id="XMLID_1449_" x="349.7" y="183.5" transform="matrix(-1 -1.224647e-16 1.224647e-16 -1 705.5517 368.5659)" class="st37" width="6.1" height="1.6"/>
		
			<rect id="XMLID_1448_" x="349.7" y="177.1" transform="matrix(-1 -1.224647e-16 1.224647e-16 -1 702.4914 355.8409)" class="st37" width="3.1" height="1.6"/>
	</g>
	<linearGradient id="XMLID_399_" gradientUnits="userSpaceOnUse" x1="32.98" y1="178.8713" x2="150.8883" y2="128.5538">
		<stop  offset="0" style="stop-color:#0AA4F5"/>
		<stop  offset="0.1697" style="stop-color:#27BBDF"/>
		<stop  offset="0.3816" style="stop-color:#44D2CA"/>
		<stop  offset="0.5926" style="stop-color:#58E3BA"/>
		<stop  offset="0.8" style="stop-color:#65EDB1"/>
		<stop  offset="1" style="stop-color:#69F0AE"/>
	</linearGradient>
	<path id="XMLID_1446_" class="st11" d="M139.6,120.7H42.7c-4.9,0-8.8,3.9-8.8,8.8v38.1c0,4.9,3.9,8.8,8.8,8.8h71.4l16.2,14.7
		c1.3,1.1,3.3,0.2,3.3-1.5v-13.2h6.1c4.9,0,8.8-3.9,8.8-8.8v-38.1C148.4,124.6,144.5,120.7,139.6,120.7z"/>
	<g id="XMLID_1404_">
		<path id="XMLID_1443_" class="st3" d="M44.3,134.5c0.7,0.6,1,1.5,1,2.7s-0.4,2.1-1.1,2.7c-0.7,0.6-1.8,0.8-3.3,0.8h-1.3v2.8h-2.2
			v-9.9H41C42.5,133.6,43.6,133.9,44.3,134.5z M42.7,138.4c0.3-0.3,0.4-0.7,0.4-1.3c0-0.6-0.2-1-0.5-1.2c-0.3-0.2-0.9-0.4-1.6-0.4
			h-1.3v3.3h1.5C41.9,138.8,42.4,138.7,42.7,138.4z"/>
		<path id="XMLID_1441_" class="st3" d="M53.2,133.6h2.2v9.9h-2.2v-3.9h-3.9v3.9H47v-9.9h2.2v4.1h3.9V133.6z"/>
		<path id="XMLID_1438_" class="st3" d="M64.6,134.5c0.7,0.6,1,1.5,1,2.7s-0.4,2.1-1.1,2.7c-0.7,0.6-1.8,0.8-3.3,0.8H60v2.8h-2.2
			v-9.9h3.5C62.8,133.6,63.9,133.9,64.6,134.5z M63,138.4c0.3-0.3,0.4-0.7,0.4-1.3c0-0.6-0.2-1-0.5-1.2c-0.3-0.2-0.9-0.4-1.6-0.4H60
			v3.3h1.5C62.3,138.8,62.8,138.7,63,138.4z"/>
		<path id="XMLID_1436_" class="st3" d="M67.5,143.3c-0.3-0.2-0.5-0.5-0.5-0.9c0-0.4,0.1-0.7,0.4-0.9c0.3-0.2,0.6-0.4,0.9-0.4
			c0.4,0,0.7,0.1,0.9,0.4c0.3,0.2,0.4,0.5,0.4,0.8c0,0.3-0.1,0.7-0.4,1.1l-0.8,1.5h-1.4L67.5,143.3z"/>
		<path id="XMLID_1434_" class="st3" d="M76.2,141.5c1.1,0,2-0.4,2.7-1.3l1.4,1.5c-1.1,1.3-2.4,1.9-4,1.9c-1.5,0-2.8-0.5-3.8-1.4
			c-1-1-1.5-2.2-1.5-3.6c0-1.5,0.5-2.7,1.5-3.7c1-1,2.2-1.5,3.7-1.5c1.6,0,3,0.6,4.1,1.9l-1.4,1.6c-0.7-0.9-1.6-1.3-2.6-1.3
			c-0.8,0-1.5,0.3-2.1,0.8c-0.6,0.5-0.9,1.3-0.9,2.2c0,0.9,0.3,1.7,0.8,2.2C74.7,141.2,75.4,141.5,76.2,141.5z"/>
		<path id="XMLID_1432_" class="st3" d="M84.3,135.6c-0.2,0.2-0.3,0.4-0.3,0.7c0,0.3,0.1,0.5,0.4,0.7c0.3,0.2,0.9,0.4,1.8,0.6
			c0.9,0.2,1.7,0.6,2.2,1c0.5,0.5,0.8,1.1,0.8,2s-0.3,1.6-1,2.2c-0.7,0.6-1.5,0.8-2.6,0.8c-1.6,0-3-0.6-4.2-1.7l1.3-1.6
			c1.1,0.9,2.1,1.4,3,1.4c0.4,0,0.7-0.1,1-0.3c0.2-0.2,0.3-0.4,0.3-0.7c0-0.3-0.1-0.5-0.4-0.7c-0.2-0.2-0.7-0.4-1.5-0.5
			c-1.1-0.3-2-0.6-2.5-1.1c-0.5-0.4-0.8-1.1-0.8-2.1c0-0.9,0.3-1.7,1-2.2c0.7-0.5,1.5-0.8,2.5-0.8c0.7,0,1.3,0.1,2,0.3
			c0.7,0.2,1.2,0.5,1.7,1l-1.1,1.6c-0.9-0.7-1.7-1-2.7-1C84.8,135.3,84.5,135.4,84.3,135.6z"/>
		<path id="XMLID_1430_" class="st3" d="M93.3,135.6c-0.2,0.2-0.3,0.4-0.3,0.7c0,0.3,0.1,0.5,0.4,0.7c0.3,0.2,0.9,0.4,1.8,0.6
			c0.9,0.2,1.7,0.6,2.2,1c0.5,0.5,0.8,1.1,0.8,2s-0.3,1.6-1,2.2c-0.7,0.6-1.5,0.8-2.6,0.8c-1.6,0-3-0.6-4.2-1.7l1.3-1.6
			c1.1,0.9,2,1.4,3,1.4c0.4,0,0.7-0.1,1-0.3c0.2-0.2,0.3-0.4,0.3-0.7c0-0.3-0.1-0.5-0.4-0.7c-0.2-0.2-0.7-0.4-1.5-0.5
			c-1.1-0.3-2-0.6-2.5-1.1c-0.5-0.4-0.8-1.1-0.8-2.1c0-0.9,0.3-1.7,1-2.2c0.7-0.5,1.5-0.8,2.5-0.8c0.7,0,1.3,0.1,2,0.3
			c0.7,0.2,1.2,0.5,1.7,1l-1.1,1.6c-0.9-0.7-1.7-1-2.7-1C93.8,135.3,93.5,135.4,93.3,135.6z"/>
		<path id="XMLID_1428_" class="st3" d="M100.1,143.3c-0.3-0.2-0.5-0.5-0.5-0.9c0-0.4,0.1-0.7,0.4-0.9c0.3-0.2,0.6-0.4,0.9-0.4
			c0.4,0,0.7,0.1,0.9,0.4c0.3,0.2,0.4,0.5,0.4,0.8c0,0.3-0.1,0.7-0.4,1.1l-0.8,1.5h-1.4L100.1,143.3z"/>
		<path id="XMLID_1426_" class="st3" d="M104.6,135.5v-1.9h5.2v6.5c0,1.2-0.3,2.1-0.9,2.6c-0.6,0.6-1.4,0.9-2.3,0.9
			c-1.2,0-2.2-0.5-3.1-1.4l1.1-1.6c0.6,0.6,1.2,1,1.9,1c0.3,0,0.6-0.1,0.8-0.4c0.2-0.2,0.3-0.6,0.3-1.1v-4.6H104.6z"/>
		<path id="XMLID_1423_" class="st3" d="M119,143.5l-0.9-2.1h-4.1l-0.9,2.1h-2.3l4.3-9.9h2.1l4.3,9.9H119z M116,136.5l-1.2,2.9h2.5
			L116,136.5z"/>
		<path id="XMLID_1421_" class="st3" d="M125.5,139.9l2.5-6.3h2.4l-4,9.9h-1.9l-4-9.9h2.4L125.5,139.9z"/>
		<path id="XMLID_1418_" class="st3" d="M138.1,143.5l-0.9-2.1H133l-0.9,2.1h-2.3l4.3-9.9h2.1l4.3,9.9H138.1z M135.1,136.5l-1.2,2.9
			h2.5L135.1,136.5z"/>
		<path id="XMLID_1416_" class="st3" d="M141.6,143.3c-0.3-0.2-0.5-0.5-0.5-0.9c0-0.4,0.1-0.7,0.4-0.9c0.3-0.2,0.6-0.4,0.9-0.4
			c0.4,0,0.7,0.1,0.9,0.4c0.3,0.2,0.4,0.5,0.4,0.8c0,0.3-0.1,0.7-0.4,1.1l-0.9,1.5h-1.4L141.6,143.3z"/>
		<path id="XMLID_1414_" class="st3" d="M77.3,150.6h2.2v9.9h-2.2v-3.9h-3.9v3.9h-2.2v-9.9h2.2v4.1h3.9V150.6z"/>
		<path id="XMLID_1412_" class="st3" d="M86.1,152.5v8h-2.2v-8h-2.8v-1.9h7.8v1.9H86.1z"/>
		<path id="XMLID_1408_" class="st3" d="M99.4,154.2l-2.7,5.4h-1.3l-2.7-5.4v6.2h-2.2v-9.9h3l2.5,5.4l2.6-5.4h3v9.9h-2.2V154.2z"/>
		<path id="XMLID_1405_" class="st3" d="M104,160.5v-9.9h2.2v7.9h4.2v2H104z"/>
	</g>
	<g id="XMLID_1398_">
		<linearGradient id="XMLID_400_" gradientUnits="userSpaceOnUse" x1="153.4775" y1="76.606" x2="155.355" y2="115.2832">
			<stop  offset="0" style="stop-color:#BE1E2D"/>
			<stop  offset="0.5865" style="stop-color:#E74226"/>
			<stop  offset="1" style="stop-color:#FF5722"/>
		</linearGradient>
		<path id="XMLID_1403_" class="st12" d="M163.3,116.7l-7-4.7c-1-0.7-2.3-0.7-3.3,0l-7,4.7c-0.9,0.4-1.9-0.3-1.9-1.3V84.5h21.1v30.9
			C165.1,116.4,164.2,117.1,163.3,116.7z"/>
		<path id="XMLID_1400_" class="st4" d="M165.1,84.5h-10.5h-10.5v11.3l10-5.4c0.4-0.2,0.9-0.2,1.3,0l9.8,5V84.5z"/>
		<linearGradient id="XMLID_401_" gradientUnits="userSpaceOnUse" x1="130.9653" y1="90.716" x2="183.1605" y2="47.1574">
			<stop  offset="0" style="stop-color:#FF9800"/>
			<stop  offset="0.296" style="stop-color:#FFBE00"/>
			<stop  offset="0.5766" style="stop-color:#FFDB00"/>
			<stop  offset="0.8204" style="stop-color:#FFEC00"/>
			<stop  offset="1" style="stop-color:#FFF200"/>
		</linearGradient>
		<path id="XMLID_1399_" class="st13" d="M176.6,98.9l-21.2-10.8c-0.4-0.2-0.9-0.2-1.3,0l-20.9,11.3c-1,0.6-2.2-0.3-2.1-1.5
			l3.7-23.5c0.1-0.5-0.1-0.9-0.4-1.2l-17.2-16.4c-0.8-0.8-0.4-2.2,0.7-2.4l23.5-3.7c0.5-0.1,0.9-0.4,1.1-0.8l10.2-21.4
			c0.5-1.1,2-1.1,2.5,0L166,49.7c0.2,0.4,0.6,0.7,1.1,0.8l23.5,3.1c1.2,0.2,1.6,1.6,0.8,2.4l-16.8,16.8c-0.3,0.3-0.5,0.8-0.4,1.3
			l4.3,23.4C178.8,98.5,177.6,99.4,176.6,98.9z"/>
	</g>
	<g id="XMLID_1391_">
		<linearGradient id="XMLID_402_" gradientUnits="userSpaceOnUse" x1="336.7807" y1="254.9336" x2="346.1145" y2="254.9336">
			<stop  offset="0.4016" style="stop-color:#FFC107"/>
			<stop  offset="0.8439" style="stop-color:#FFA402"/>
			<stop  offset="1" style="stop-color:#FF9800"/>
		</linearGradient>
		<rect id="XMLID_1397_" x="336.8" y="202.9" class="st15" width="9.3" height="104.1"/>
		<path id="XMLID_1396_" class="st59" d="M346.1,309.2h-9.3v3.6c0,0.6,0.5,1.2,1.2,1.2h7c0.6,0,1.2-0.5,1.2-1.2V309.2z"/>
		<rect id="XMLID_1395_" x="336.8" y="307" class="st20" width="9.3" height="2.2"/>
		<path id="XMLID_1393_" class="st150" d="M341.1,192.1l-4.3,10.8h9.3l-4.3-10.8C341.7,191.7,341.2,191.7,341.1,192.1z"/>
		<path id="XMLID_1392_" class="st20" d="M341.3,191.4l-1.2,2.9h2.5l-1.2-2.9C341.5,191.3,341.4,191.3,341.3,191.4z"/>
	</g>
	<g id="XMLID_1389_">
		<linearGradient id="XMLID_403_" gradientUnits="userSpaceOnUse" x1="287.4301" y1="58.3945" x2="361.1218" y2="58.3945">
			<stop  offset="0" style="stop-color:#E040FB"/>
			<stop  offset="5.434531e-02" style="stop-color:#D840F7"/>
			<stop  offset="0.5003" style="stop-color:#9B3DD4"/>
			<stop  offset="0.828" style="stop-color:#753BBF"/>
			<stop  offset="1" style="stop-color:#673AB7"/>
		</linearGradient>
		<path id="XMLID_1390_" class="st16" d="M295.3,63.7l-7.4-7.7c-0.5-0.5-0.5-1.4,0-1.9c0.5-0.5,1.4-0.5,1.9,0l5.5,5.6l6.4-6.6
			l6.4,6.6l6.4-6.6l6.4,6.6l6.4-6.6l6.4,6.6l6.4-6.6l6.5,6.6l6.5-6.6l7.4,7.7c0.5,0.5,0.5,1.4,0,1.9c-0.5,0.5-1.4,0.5-1.9,0
			l-5.5-5.6l-6.5,6.6l-6.5-6.6l-6.4,6.6l-6.4-6.6l-6.4,6.6l-6.4-6.6l-6.4,6.6l-6.4-6.6L295.3,63.7z"/>
	</g>
	<g id="XMLID_1387_">
		<linearGradient id="XMLID_404_" gradientUnits="userSpaceOnUse" x1="34.1667" y1="99.6153" x2="107.8584" y2="99.6153">
			<stop  offset="0" style="stop-color:#E040FB"/>
			<stop  offset="5.434531e-02" style="stop-color:#D840F7"/>
			<stop  offset="0.5003" style="stop-color:#9B3DD4"/>
			<stop  offset="0.828" style="stop-color:#753BBF"/>
			<stop  offset="1" style="stop-color:#673AB7"/>
		</linearGradient>
		<path id="XMLID_1388_" class="st17" d="M42,104.9l-7.4-7.7c-0.5-0.5-0.5-1.4,0-1.9c0.5-0.5,1.4-0.5,1.9,0L42,101l6.4-6.6l6.4,6.6
			l6.4-6.6l6.4,6.6l6.4-6.6l6.4,6.6l6.4-6.6l6.5,6.6l6.5-6.6l7.4,7.7c0.5,0.5,0.5,1.4,0,1.9c-0.5,0.5-1.4,0.5-1.9,0l-5.5-5.6
			l-6.5,6.6l-6.5-6.6l-6.4,6.6l-6.4-6.6l-6.4,6.6l-6.4-6.6l-6.4,6.6l-6.4-6.6L42,104.9z"/>
	</g>
	<g id="XMLID_1383_">
		<path id="XMLID_1384_" class="st3" d="M223.4,27.8c-2.4,0-4.3-1.9-4.3-4.3c0-2.4,1.9-4.3,4.3-4.3c2.4,0,4.3,1.9,4.3,4.3
			C227.7,25.8,225.8,27.8,223.4,27.8z M223.4,20.7c-1.5,0-2.8,1.2-2.8,2.8c0,1.5,1.2,2.8,2.8,2.8s2.8-1.2,2.8-2.8
			C226.2,21.9,225,20.7,223.4,20.7z"/>
	</g>
	<g id="XMLID_1377_">
		<path id="XMLID_1378_" class="st3" d="M124.2,108.4c-1.2,0-2.2-1-2.2-2.2c0-1.2,1-2.2,2.2-2.2s2.2,1,2.2,2.2
			C126.4,107.4,125.4,108.4,124.2,108.4z M124.2,104.8c-0.8,0-1.4,0.6-1.4,1.4c0,0.8,0.6,1.4,1.4,1.4c0.8,0,1.4-0.6,1.4-1.4
			C125.6,105.5,125,104.8,124.2,104.8z"/>
	</g>
	<g id="XMLID_1373_">
		<path id="XMLID_1374_" class="st3" d="M270,68.3c-1.2,0-2.2-1-2.2-2.2c0-1.2,1-2.2,2.2-2.2c1.2,0,2.2,1,2.2,2.2
			C272.2,67.3,271.2,68.3,270,68.3z M270,64.7c-0.8,0-1.4,0.6-1.4,1.4c0,0.8,0.6,1.4,1.4,1.4c0.8,0,1.4-0.6,1.4-1.4
			C271.4,65.3,270.8,64.7,270,64.7z"/>
	</g>
	<g id="XMLID_1368_">
		<path id="XMLID_1369_" class="st3" d="M247.3,68.1h-10.1l5.1-8.8L247.3,68.1z M240.6,66.1h3.3l-1.6-2.8L240.6,66.1z"/>
	</g>
	<g id="XMLID_1363_">
		<path id="XMLID_1364_" class="st3" d="M206.4,51.3l-7.3-12.6h14.6L206.4,51.3z M206.4,45.6l2.4-4.1h-4.7L206.4,45.6z"/>
	</g>
	<g id="XMLID_1359_">
		<path id="XMLID_1360_" class="st3" d="M106.2,78.3l-5.1-8.8h10.1L106.2,78.3z M106.2,74.4l1.6-2.8h-3.3L106.2,74.4z"/>
	</g>
	<g id="XMLID_1356_">
		<path id="XMLID_1358_" class="st3" d="M259.1,45.8l-6.2-6.4c-0.4-0.4-0.4-1,0-1.3c0.4-0.4,1-0.4,1.3,0l4.8,5l5.5-5.7l5.5,5.7
			l5.5-5.7l5.5,5.7l4.8-5c0.4-0.4,1-0.4,1.3,0c0.4,0.4,0.4,1,0,1.3l-6.2,6.4l-5.5-5.7l-5.5,5.7l-5.5-5.7L259.1,45.8z"/>
	</g>
</g>
</svg>
