<?xml version="1.0" encoding="utf-8"?>
<!-- Generator: Adobe Illustrator 22.1.0, SVG Export Plug-In . SVG Version: 6.00 Build 0)  -->
<svg version="1.1" id="Layer_1" xmlns="http://www.w3.org/2000/svg" xmlns:xlink="http://www.w3.org/1999/xlink" x="0px" y="0px"
	 viewBox="0 0 400 326" style="enable-background:new 0 0 400 326;" xml:space="preserve">
<style type="text/css">
	.st0{fill:url(#XMLID_77_);}
	.st1{fill:url(#XMLID_78_);}
	.st2{fill:url(#XMLID_79_);}
	.st3{fill:#FFFFFF;}
	.st4{opacity:0.3;fill:#231F20;}
	.st5{fill:url(#XMLID_80_);}
	.st6{fill:#4D2C89;}
	.st7{fill:url(#XMLID_81_);}
	.st8{fill:#BDC3C7;}
	.st9{opacity:0.3;fill:#212121;}
	.st10{fill:url(#XMLID_82_);}
	.st11{fill:url(#XMLID_83_);}
	.st12{fill:url(#XMLID_84_);}
	.st13{fill:url(#XMLID_85_);}
	.st14{fill:#FFF186;}
	.st15{fill:url(#XMLID_86_);}
	.st16{fill:url(#XMLID_87_);}
	.st17{fill:url(#XMLID_88_);}
	.st18{fill:#FFA000;}
	.st19{fill:url(#XMLID_89_);}
	.st20{fill:#212121;}
	.st21{fill:url(#XMLID_90_);}
	.st22{fill:url(#XMLID_91_);}
	.st23{fill:url(#XMLID_111_);}
	.st24{fill:url(#XMLID_113_);}
	.st25{fill:url(#XMLID_114_);}
	.st26{fill:url(#XMLID_116_);}
	.st27{fill:url(#XMLID_131_);}
	.st28{fill:url(#XMLID_132_);}
	.st29{fill:url(#XMLID_133_);}
	.st30{fill:#ECECEC;}
	.st31{fill:#D8D8D8;}
	.st32{fill:#FAFAFA;}
	.st33{fill:#C5C5C5;}
	.st34{fill:#373737;}
	.st35{fill:url(#XMLID_134_);}
	.st36{fill:#58595B;}
	.st37{fill:#414042;}
	.st38{fill:url(#XMLID_136_);}
	.st39{opacity:0.3;fill:#414042;}
	.st40{fill:#231F20;}
	.st41{fill:url(#XMLID_137_);}
	.st42{fill:url(#XMLID_146_);}
	.st43{fill:url(#XMLID_148_);}
	.st44{fill:#FFC107;}
	.st45{fill:url(#XMLID_161_);}
	.st46{fill:url(#XMLID_162_);}
	.st47{fill:url(#XMLID_163_);}
	.st48{fill:url(#XMLID_166_);}
	.st49{fill:url(#XMLID_171_);}
	.st50{fill:url(#XMLID_172_);}
	.st51{fill:url(#XMLID_178_);}
	.st52{fill:url(#XMLID_181_);}
</style>
<g id="XMLID_1_">
	<linearGradient id="XMLID_77_" gradientUnits="userSpaceOnUse" x1="133.3075" y1="289.2615" x2="296.7531" y2="32.6115">
		<stop  offset="0" style="stop-color:#0AA4F5"/>
		<stop  offset="4.839605e-02" style="stop-color:#0BA9F6"/>
		<stop  offset="0.6936" style="stop-color:#14E7FC"/>
		<stop  offset="1" style="stop-color:#18FFFF"/>
	</linearGradient>
	<circle id="XMLID_75_" class="st0" cx="214.3" cy="162" r="151.4"/>
	<g id="XMLID_73_">
		<path id="XMLID_1516_" class="st3" d="M299.1,315.2H138c-2.6,0-4.8-2.1-4.8-4.8V81.8c0-2.6,2.1-4.8,4.8-4.8h161.1
			c2.6,0,4.8,2.1,4.8,4.8v228.6C303.9,313.1,301.8,315.2,299.1,315.2z"/>
		<path id="XMLID_92_" class="st44" d="M294.5,77H142.7c-5.2,0-9.4,4.2-9.4,9.4v34.3h170.6V86.4C303.9,81.2,299.7,77,294.5,77z"/>
		<linearGradient id="XMLID_78_" gradientUnits="userSpaceOnUse" x1="130.4941" y1="127.2151" x2="307.9198" y2="72.5793">
			<stop  offset="0" style="stop-color:#E040FB"/>
			<stop  offset="0.4073" style="stop-color:#ED7792"/>
			<stop  offset="0.8161" style="stop-color:#FAAC2F"/>
			<stop  offset="1" style="stop-color:#FFC107"/>
		</linearGradient>
		<path id="XMLID_74_" class="st1" d="M294.5,77H142.7c-5.2,0-9.4,4.2-9.4,9.4v34.3h170.6V86.4C303.9,81.2,299.7,77,294.5,77z"/>
		<path id="XMLID_1552_" class="st31" d="M259.3,141.8h-95.6c-0.4,0-0.7-0.3-0.7-0.7v-6.9c0-0.4,0.3-0.7,0.7-0.7h95.6
			c0.4,0,0.7,0.3,0.7,0.7v6.9C259.9,141.5,259.6,141.8,259.3,141.8z"/>
		<path id="XMLID_1553_" class="st31" d="M275.4,158.7H161.7c-0.2,0-0.4-0.2-0.4-0.4v-4.6c0-0.2,0.2-0.4,0.4-0.4h113.7
			c0.2,0,0.4,0.2,0.4,0.4v4.6C275.9,158.5,275.7,158.7,275.4,158.7z"/>
		<path id="XMLID_1554_" class="st31" d="M275.4,174.7H161.7c-0.2,0-0.4-0.2-0.4-0.4v-4.6c0-0.2,0.2-0.4,0.4-0.4h113.7
			c0.2,0,0.4,0.2,0.4,0.4v4.6C275.9,174.5,275.7,174.7,275.4,174.7z"/>
		<path id="XMLID_1555_" class="st31" d="M275.4,190.7H161.7c-0.2,0-0.4-0.2-0.4-0.4v-4.6c0-0.2,0.2-0.4,0.4-0.4h113.7
			c0.2,0,0.4,0.2,0.4,0.4v4.6C275.9,190.5,275.7,190.7,275.4,190.7z"/>
		<path id="XMLID_1556_" class="st31" d="M275.4,206.6H161.7c-0.2,0-0.4-0.2-0.4-0.4v-4.6c0-0.2,0.2-0.4,0.4-0.4h113.7
			c0.2,0,0.4,0.2,0.4,0.4v4.6C275.9,206.4,275.7,206.6,275.4,206.6z"/>
		<path id="XMLID_1557_" class="st31" d="M275.4,222.6H161.7c-0.2,0-0.4-0.2-0.4-0.4v-4.6c0-0.2,0.2-0.4,0.4-0.4h113.7
			c0.2,0,0.4,0.2,0.4,0.4v4.6C275.9,222.4,275.7,222.6,275.4,222.6z"/>
		<path id="XMLID_1558_" class="st31" d="M200.9,238.6h-39.1c-0.2,0-0.4-0.2-0.4-0.4v-4.6c0-0.2,0.2-0.4,0.4-0.4h39.1
			c0.2,0,0.4,0.2,0.4,0.4v4.6C201.3,238.4,201.1,238.6,200.9,238.6z"/>
		<path id="XMLID_1559_" class="st31" d="M200.9,254.6h-39.1c-0.2,0-0.4-0.2-0.4-0.4v-4.6c0-0.2,0.2-0.4,0.4-0.4h39.1
			c0.2,0,0.4,0.2,0.4,0.4v4.6C201.3,254.4,201.1,254.6,200.9,254.6z"/>
		<path id="XMLID_1560_" class="st31" d="M200.9,270.6h-39.1c-0.2,0-0.4-0.2-0.4-0.4v-4.6c0-0.2,0.2-0.4,0.4-0.4h39.1
			c0.2,0,0.4,0.2,0.4,0.4v4.6C201.3,270.4,201.1,270.6,200.9,270.6z"/>
		<path id="XMLID_1561_" class="st31" d="M200.9,286.5h-39.1c-0.2,0-0.4-0.2-0.4-0.4v-4.6c0-0.2,0.2-0.4,0.4-0.4h39.1
			c0.2,0,0.4,0.2,0.4,0.4v4.6C201.3,286.3,201.1,286.5,200.9,286.5z"/>
		<path id="XMLID_1562_" class="st31" d="M200.9,302.5h-39.1c-0.2,0-0.4-0.2-0.4-0.4v-4.6c0-0.2,0.2-0.4,0.4-0.4h39.1
			c0.2,0,0.4,0.2,0.4,0.4v4.6C201.3,302.3,201.1,302.5,200.9,302.5z"/>
		<path id="XMLID_433_" class="st3" d="M174.9,98.9c0,6.6-5.3,11.9-11.9,11.9c-6.6,0-11.9-5.3-11.9-11.9c0-6.6,5.3-11.9,11.9-11.9
			C169.6,87,174.9,92.3,174.9,98.9z"/>
	</g>
	<g id="XMLID_1573_">
		<linearGradient id="XMLID_79_" gradientUnits="userSpaceOnUse" x1="339.0174" y1="316.4263" x2="345.4948" y2="302.0632">
			<stop  offset="0" style="stop-color:#E040FB"/>
			<stop  offset="0.4073" style="stop-color:#ED7792"/>
			<stop  offset="0.8161" style="stop-color:#FAAC2F"/>
			<stop  offset="1" style="stop-color:#FFC107"/>
		</linearGradient>
		<rect id="XMLID_1572_" x="339.4" y="303.8" class="st2" width="5.4" height="11.4"/>
		<g id="XMLID_1567_">
			<rect id="XMLID_1570_" x="333" y="276.8" class="st40" width="4.9" height="15.7"/>
		</g>
		<rect id="XMLID_1563_" x="336.7" y="174.8" class="st37" width="10.8" height="132.3"/>
		<path id="XMLID_1566_" class="st37" d="M341.1,163c0.6-1.6,1.5-1.6,2.1,0l4.4,11.8h-10.8L341.1,163z"/>
		<linearGradient id="XMLID_80_" gradientUnits="userSpaceOnUse" x1="335.0563" y1="298.3684" x2="349.1378" y2="268.234">
			<stop  offset="0" style="stop-color:#E040FB"/>
			<stop  offset="0.4073" style="stop-color:#ED7792"/>
			<stop  offset="0.8161" style="stop-color:#FAAC2F"/>
			<stop  offset="1" style="stop-color:#FFC107"/>
		</linearGradient>
		<rect id="XMLID_1565_" x="335.4" y="268.2" class="st5" width="13.6" height="29.7"/>
		<g id="XMLID_1568_">
			<linearGradient id="XMLID_81_" gradientUnits="userSpaceOnUse" x1="329.0475" y1="300.2769" x2="333.5536" y2="245.3591">
				<stop  offset="0" style="stop-color:#E040FB"/>
				<stop  offset="0.4073" style="stop-color:#ED7792"/>
				<stop  offset="0.8161" style="stop-color:#FAAC2F"/>
				<stop  offset="1" style="stop-color:#FFC107"/>
			</linearGradient>
			<rect id="XMLID_1569_" x="329.7" y="244" class="st7" width="3.3" height="56.7"/>
		</g>
	</g>
	<path id="XMLID_435_" class="st39" d="M201,225.7h-0.2c-2.4,0-4.3,1.9-4.3,4.3v75c0,2.4,1.9,4.3,4.3,4.3h0.2h102.3
		c0.4-1,0.6-2,0.6-3.1v-80.5H201z"/>
	<g id="XMLID_430_">
		<path id="XMLID_72_" class="st37" d="M327.3,315.2h-130c-0.4,0-0.7-0.3-0.7-0.7v-82.1c0-0.4,0.3-0.7,0.7-0.7h130
			c0.4,0,0.7,0.3,0.7,0.7v82.1C328,314.9,327.7,315.2,327.3,315.2z"/>
		<path id="XMLID_415_" class="st36" d="M327.2,313.2l-62.3-45.3c-1.5-1.1-3.6-1.1-5.2,0l-62.3,45.3c0.8,1.2,2.1,2,3.6,2h122.6
			C325.1,315.2,326.4,314.4,327.2,313.2z"/>
		<linearGradient id="XMLID_82_" gradientUnits="userSpaceOnUse" x1="221.2395" y1="261.379" x2="297.2794" y2="219.6978">
			<stop  offset="0" style="stop-color:#E040FB"/>
			<stop  offset="0.4073" style="stop-color:#ED7792"/>
			<stop  offset="0.8161" style="stop-color:#FAAC2F"/>
			<stop  offset="1" style="stop-color:#FFC107"/>
		</linearGradient>
		<path id="XMLID_71_" class="st10" d="M197.4,233.6l62.3,45.3c1.5,1.1,3.6,1.1,5.2,0l62.3-45.3c-0.8-1.2-2.1-2-3.6-2H201
			C199.5,231.6,198.2,232.4,197.4,233.6z"/>
	</g>
	<path id="XMLID_434_" class="st39" d="M185.8,309.1V166.3c0-3.4-2.7-6.1-6.1-6.1h-46.5v145.9c0,5,4,9,9,9h37.5
		C183.1,315.2,185.8,312.5,185.8,309.1z"/>
	<g id="XMLID_93_">
		<path id="XMLID_69_" class="st37" d="M177.3,315.4H91.6c-1.5,0-2.6-1.2-2.6-2.6V162.6c0-1.5,1.2-2.6,2.6-2.6h85.7
			c1.5,0,2.6,1.2,2.6,2.6v150.2C179.9,314.3,178.7,315.4,177.3,315.4z"/>
		<linearGradient id="XMLID_83_" gradientUnits="userSpaceOnUse" x1="92.0834" y1="295.3312" x2="174.3194" y2="178.1731">
			<stop  offset="0" style="stop-color:#E040FB"/>
			<stop  offset="0.4073" style="stop-color:#ED7792"/>
			<stop  offset="0.8161" style="stop-color:#FAAC2F"/>
			<stop  offset="1" style="stop-color:#FFC107"/>
		</linearGradient>
		<rect id="XMLID_96_" x="97.5" y="178.7" class="st11" width="73.9" height="112.6"/>
		<path id="XMLID_95_" class="st40" d="M148.1,171.3h-27.3c-0.5,0-0.9-0.4-0.9-0.9l0,0c0-0.5,0.4-0.9,0.9-0.9h27.3
			c0.5,0,0.9,0.4,0.9,0.9l0,0C149,170.9,148.6,171.3,148.1,171.3z"/>
	</g>
	<g id="XMLID_67_">
		<linearGradient id="XMLID_84_" gradientUnits="userSpaceOnUse" x1="264.1475" y1="55.1202" x2="354.5339" y2="55.1202">
			<stop  offset="0" style="stop-color:#FFF200"/>
			<stop  offset="0.1796" style="stop-color:#FFEC00"/>
			<stop  offset="0.4234" style="stop-color:#FFDB00"/>
			<stop  offset="0.704" style="stop-color:#FFBE00"/>
			<stop  offset="1" style="stop-color:#FF9800"/>
		</linearGradient>
		<path id="XMLID_68_" class="st12" d="M273.7,61.6l-9.1-9.4c-0.6-0.7-0.6-1.7,0-2.4c0.7-0.6,1.7-0.6,2.4,0l6.7,6.9l7.9-8.2l7.9,8.2
			l7.9-8.2l7.9,8.2l7.9-8.2l7.9,8.2l7.9-8.2l7.9,8.2l7.9-8.2l9.1,9.4c0.6,0.7,0.6,1.7,0,2.4c-0.7,0.6-1.7,0.6-2.4,0l-6.7-6.9
			l-7.9,8.2l-7.9-8.2l-7.9,8.2l-7.9-8.2l-7.9,8.2l-7.9-8.2l-7.9,8.2l-7.9-8.2L273.7,61.6z"/>
	</g>
	<g id="XMLID_64_">
		<linearGradient id="XMLID_85_" gradientUnits="userSpaceOnUse" x1="34.2583" y1="125.9163" x2="124.6447" y2="125.9163">
			<stop  offset="0" style="stop-color:#FFF200"/>
			<stop  offset="0.1796" style="stop-color:#FFEC00"/>
			<stop  offset="0.4234" style="stop-color:#FFDB00"/>
			<stop  offset="0.704" style="stop-color:#FFBE00"/>
			<stop  offset="1" style="stop-color:#FF9800"/>
		</linearGradient>
		<path id="XMLID_66_" class="st13" d="M43.9,132.4l-9.1-9.4c-0.6-0.7-0.6-1.7,0-2.4c0.7-0.6,1.7-0.6,2.4,0l6.7,6.9l7.9-8.2l7.9,8.2
			l7.9-8.2l7.9,8.2l7.9-8.2l7.9,8.2l7.9-8.2l7.9,8.2l7.9-8.2l9.1,9.4c0.6,0.7,0.6,1.7,0,2.4c-0.7,0.6-1.7,0.6-2.4,0l-6.7-6.9
			l-7.9,8.2l-7.9-8.2l-7.9,8.2l-7.9-8.2l-7.9,8.2l-7.9-8.2l-7.9,8.2l-7.9-8.2L43.9,132.4z"/>
	</g>
	<g id="XMLID_58_">
		<path id="XMLID_60_" class="st3" d="M211.5,65c-2.9,0-5.3-2.4-5.3-5.3c0-2.9,2.4-5.3,5.3-5.3c2.9,0,5.3,2.4,5.3,5.3
			C216.8,62.6,214.4,65,211.5,65z M211.5,56.3c-1.9,0-3.4,1.5-3.4,3.4s1.5,3.4,3.4,3.4s3.4-1.5,3.4-3.4S213.4,56.3,211.5,56.3z"/>
	</g>
	<g id="XMLID_52_">
		<path id="XMLID_54_" class="st3" d="M111.3,102.5c-1.5,0-2.6-1.2-2.6-2.6c0-1.5,1.2-2.6,2.6-2.6c1.5,0,2.6,1.2,2.6,2.6
			C113.9,101.3,112.7,102.5,111.3,102.5z M111.3,98.1c-0.9,0-1.7,0.8-1.7,1.7c0,0.9,0.8,1.7,1.7,1.7c0.9,0,1.7-0.8,1.7-1.7
			C113,98.9,112.2,98.1,111.3,98.1z"/>
	</g>
	<g id="XMLID_41_">
		<path id="XMLID_42_" class="st3" d="M257.3,31.1c-1.5,0-2.6-1.2-2.6-2.6c0-1.5,1.2-2.6,2.6-2.6c1.5,0,2.6,1.2,2.6,2.6
			C259.9,29.9,258.8,31.1,257.3,31.1z M257.3,26.8c-0.9,0-1.7,0.8-1.7,1.7c0,0.9,0.8,1.7,1.7,1.7c0.9,0,1.7-0.8,1.7-1.7
			C259,27.5,258.2,26.8,257.3,26.8z"/>
	</g>
	<g id="XMLID_29_">
		<path id="XMLID_30_" class="st3" d="M316.2,105.9c-1.5,0-2.6-1.2-2.6-2.6c0-1.5,1.2-2.6,2.6-2.6c1.5,0,2.6,1.2,2.6,2.6
			C318.9,104.7,317.7,105.9,316.2,105.9z M316.2,101.5c-0.9,0-1.7,0.8-1.7,1.7c0,0.9,0.8,1.7,1.7,1.7c0.9,0,1.7-0.8,1.7-1.7
			C317.9,102.3,317.2,101.5,316.2,101.5z"/>
	</g>
	<g id="XMLID_27_">
		<path id="XMLID_28_" class="st3" d="M344.4,114.7l-7.6-13.2h15.2L344.4,114.7z M344.4,108.7l2.5-4.3h-4.9L344.4,108.7z"/>
	</g>
	<g id="XMLID_23_">
		<path id="XMLID_24_" class="st3" d="M74.1,165.7l-2.2-3.9h4.5L74.1,165.7z M74.1,164l0.7-1.3h-1.5L74.1,164z"/>
	</g>
	<g id="XMLID_112_">
		<path id="XMLID_20_" class="st3" d="M321.3,155.7h-10.1l5.1-8.8L321.3,155.7z M314.6,153.8h3.3l-1.6-2.8L314.6,153.8z"/>
	</g>
	<g id="XMLID_15_">
		<path id="XMLID_17_" class="st3" d="M129.7,146.2h-10.1l5.1-8.8L129.7,146.2z M123,144.2h3.3l-1.6-2.8L123,144.2z"/>
	</g>
	<g id="XMLID_11_">
		<path id="XMLID_12_" class="st3" d="M190.9,33.3h-10.1l5.1-8.8L190.9,33.3z M184.2,31.3h3.3l-1.6-2.8L184.2,31.3z"/>
	</g>
	<g id="XMLID_2_">
		<path id="XMLID_6_" class="st3" d="M123.3,64.1l-6.4-6.6c-0.4-0.4-0.4-1,0-1.4c0.4-0.4,1-0.4,1.4,0l5,5.2l5.7-5.9l5.7,5.9l5.7-5.9
			l5.7,5.9l5-5.2c0.4-0.4,1-0.4,1.4,0c0.4,0.4,0.4,1,0,1.4l-6.4,6.6l-5.7-5.9l-5.7,5.9l-5.7-5.9L123.3,64.1z"/>
	</g>
</g>
</svg>
